<svg xmlns:xlink="http://www.w3.org/1999/xlink" xmlns:lucid="lucid" xmlns="http://www.w3.org/2000/svg" width="2036.5" height="1500"><g transform="translate(0 -20)" lucid:page-tab-id="0_0"><path d="M126.78 333.6H88.76c-2.04 0-3.67 1.63-3.67 3.64h45.3c0-2-1.63-3.63-3.62-3.64zM88.78 340.87h38.02c2 0 3.62-1.62 3.62-3.6h-45.3c.04 2 1.67 3.6 3.66 3.6z" fill-opacity="0"/><path d="M130.4 337.26c0 2-1.57 3.62-3.6 3.62H88.74c-2.04.02-3.6-1.6-3.72-3.62H20v3.62c0 5.03 4.08 9.1 9.12 9.1h101.75c5.04.02 9.12-4.05 9.12-9.1v-3.62zM135.97 293.96l-5.87 6.44c0 2.3-1.92 4.14-4.2 4.14H33.98c-2.27-.02-4.2-1.86-4.2-4.14l-4.9-6.44h-4.8v6.44c0 7.62 6.24 13.78 13.9 13.76h91.94c7.67.02 13.9-6.14 13.9-13.76v-6.44z" fill="#7d7c7c"/><path d="M130.88 319.16c4.92-.03 9.12 4 9.12 9.02v7.35c0 5.06-4.08 9.1-9.12 9.1H29.12c-5.04 0-9.12-4.04-9.12-9.06v-7.33c0-5 4.08-9.08 9.12-9.05zm-4.08 16.38c2.04 0 3.6-1.63 3.6-3.64 0-2-1.56-3.65-3.6-3.65H88.76c-2.04 0-3.6 1.64-3.6 3.65 0 2 1.56 3.64 3.6 3.64h38.04M125.9 230c7.67 0 13.9 6.15 13.9 13.7v51.4c0 7.57-6.23 13.72-13.9 13.72H33.98c-7.66 0-13.9-6.15-13.9-13.72v-51.4c0-7.55 6.24-13.7 13.9-13.7zm4.2 65.1v-51.4c0-2.27-1.92-4.08-4.2-4.08H33.98c-2.27 0-4.2 1.8-4.2 4.1v51.38c0 2.2 1.93 4.1 4.2 4.1h91.94c2.28 0 4.2-1.8 4.2-4.1" fill="#d2d3d3"/><use xlink:href="#a" transform="matrix(1,0,0,1,20,350) translate(40.05 14.4)"/><path d="M371.3 300H140.8" stroke="#000" stroke-width="2" fill="none"/><path d="M386.58 300l-14.27 4.64v-9.28z" stroke="#000" stroke-width="2"/><path d="M140.82 301h-1.1l.08-.56V299h1.02z"/><use xlink:href="#b" transform="matrix(1,0,0,1,205.67913307570467,252.80000000000004) translate(0 14.4)"/><use xlink:href="#c" transform="matrix(1,0,0,1,205.67913307570467,252.80000000000004) translate(64.4 14.4)"/><use xlink:href="#d" transform="matrix(1,0,0,1,205.67913307570467,252.80000000000004) translate(0 36)"/><use xlink:href="#e" transform="matrix(1,0,0,1,205.67913307570467,252.80000000000004) translate(39.45 36)"/><path d="M438 235.42l57.98 8.62v5.1c0 7.53-25.98 13.63-58 13.63-32 0-57.98-6.1-57.98-13.64v-5.53z" fill="#8c3123"/><path d="M438.02 272.13c24.2 0 44.93-3.54 53.58-8.5l2.88-4.78 1.15-4.4v5.45l-19 81c0 5.08-17.3 9.1-38.6 9.1-21.33 0-38.6-4.02-38.6-9.1l-19.02-81v-5.35l4.38 9.27c8.76 4.87 29.27 8.3 53.24 8.3z" fill="#8c3123"/><path d="M438 230c32 0 58 6.12 58 13.62 0 7.5-26 13.57-58 13.57s-58-6.02-58-13.58c0-7.56 26-13.62 58-13.62z" fill="#e05243"/><path d="M438 266.6c29.84 0 54.4-5.2 57.62-12.06l-19.02 81c0 5.05-17.3 9.1-38.6 9.1-21.33 0-38.6-4.05-38.6-9.1l-19.03-81c3.23 6.85 27.78 12.07 57.62 12.07z" fill="#e05243"/><path d="M424.35 274.38h25.1v24.96h-25.1v-24.96zM416.75 308.17c6.84 0 12.4 5.5 12.4 12.3 0 6.8-5.56 12.3-12.4 12.3-6.83 0-12.38-5.5-12.38-12.3 0-6.8 5.55-12.3 12.38-12.3zM468.8 332.2H444l12.4-22.94 12.4 22.94z" fill="#fff"/><use xlink:href="#f" transform="matrix(1,0,0,1,380,350) translate(40.525 14.4)"/><use xlink:href="#g" transform="matrix(1,0,0,1,380,350) translate(18.599999999999994 36)"/><use xlink:href="#h" transform="matrix(1,0,0,1,380,350) translate(2.75 57.6)"/><use xlink:href="#i" transform="matrix(1,0,0,1,380,350) translate(41.85 57.6)"/><use xlink:href="#j" transform="matrix(1,0,0,1,380,350) translate(65.35 57.6)"/><path d="M748 230h120v120H748V230z" stroke="#fff" stroke-opacity="0" stroke-width="2" fill="#d86613"/><path d="M844.8 330h-19.72c-.64 0-1.15-.32-1.4-.88l-27.92-58.32h-11.78c-.9 0-1.6-.72-1.6-1.6v-17.6c0-.88.7-1.6 1.6-1.6h24.65c.64 0 1.15.32 1.4.88l27.8 58.32h6.97c.9 0 1.6.72 1.6 1.6v17.6c0 .88-.7 1.6-1.6 1.6zm-18.7-3.2h17.1v-14.4h-6.4c-.64 0-1.15-.32-1.4-.88l-27.8-58.32H785.6v14.4h11.2c.65 0 1.16.32 1.48.88z" stroke="#fff" stroke-opacity="0" stroke-width="2" fill="#fff"/><path d="M791.96 330h-20.8c-.55 0-1.05-.3-1.37-.73-.33-.54-.33-1.12-.08-1.6l21.78-45.46c.24-.58.8-.92 1.4-.92.65 0 1.18.34 1.46.88l10.4 21.43c.26.43.26.92 0 1.4L793.42 329c-.2.63-.77 1.02-1.44 1.02zm-18.24-3.22h17.24l10.6-22.36-8.6-17.88z" stroke="#fff" stroke-opacity="0" stroke-width="2" fill="#fff"/><use xlink:href="#k" transform="matrix(1,0,0,1,718,359) translate(16.375 14.4)"/><use xlink:href="#l" transform="matrix(1,0,0,1,718,359) translate(55.475 14.4)"/><use xlink:href="#m" transform="matrix(1,0,0,1,718,359) translate(104.775 14.4)"/><path d="M488.7 293.73h240.8" stroke="#000" stroke-width="2" fill="none"/><path d="M488.7 294.73h-1.25l.47-2h.8z"/><path d="M744.76 293.73l-14.26 4.64v-9.27z" stroke="#000" stroke-width="2"/><use xlink:href="#n" transform="matrix(1,0,0,1,559.0696281238693,268.1325627190839) translate(0 14.4)"/><use xlink:href="#o" transform="matrix(1,0,0,1,559.0696281238693,268.1325627190839) translate(57.650000000000006 14.4)"/><path d="M808 229v-69H438v51.5" stroke="#000" stroke-width="2" fill="none"/><path d="M809 230h-2v-1.03h2z"/><path d="M438 226.76l-4.64-14.26h9.28z" stroke="#000" stroke-width="2"/><use xlink:href="#p" transform="matrix(1,0,0,1,532.2,134.39999999999998) translate(0 14.4)"/><use xlink:href="#q" transform="matrix(1,0,0,1,532.2,134.39999999999998) translate(41.4 14.4)"/><use xlink:href="#r" transform="matrix(1,0,0,1,532.2,134.39999999999998) translate(69.8 14.4)"/><use xlink:href="#s" transform="matrix(1,0,0,1,532.2,134.39999999999998) translate(127.19999999999999 14.4)"/><use xlink:href="#t" transform="matrix(1,0,0,1,532.2,134.39999999999998) translate(146.64999999999998 14.4)"/><path d="M869 290h292.5" stroke="#000" stroke-width="2" fill="none"/><path d="M869.03 291H868v-2h1.03z"/><path d="M1176.76 290l-14.26 4.64v-9.28z" stroke="#000" stroke-width="2"/><use xlink:href="#u" transform="matrix(1,0,0,1,925.6,264.4) translate(0 14.4)"/><use xlink:href="#v" transform="matrix(1,0,0,1,925.6,264.4) translate(36.45 14.4)"/><use xlink:href="#h" transform="matrix(1,0,0,1,925.6,264.4) translate(87.80000000000001 14.4)"/><use xlink:href="#w" transform="matrix(1,0,0,1,925.6,264.4) translate(126.9 14.4)"/><path d="M520 40h1020v420H520z" stroke="#cd2264" stroke-width="2" fill="#fff" fill-opacity="0"/><path d="M520 40h56v56h-56V40z" stroke="#fff" stroke-opacity="0" fill="#cd2264"/><path d="M559.2 76.78h-22.4v-2.4h6.4c.45 0 .8-.35.8-.8V69.6c0-.44-.35-.8-.8-.8h-6.4v-1.6h6.4c.45 0 .8-.36.8-.8v-4c0-.43-.35-.8-.8-.8h-6.4v-2.38h22.4v4h1.6v-4.8c0-.48-.36-.84-.8-.84h-11.2v-1.6c1.6-.32 2.78-1.47 3.1-3.1.47-2.17-.94-4.28-3.1-4.72-2.17-.44-4.27.96-4.73 3.1-.42 2.17.95 4.3 3.12 4.72v1.6H536c-.46 0-.78.36-.78.84v3.2h-6.43c-.44 0-.8.35-.8.8v3.98c0 .44.36.8.8.8h6.42v1.6h-6.43c-.44 0-.8.36-.8.8v4c0 .43.36.8.8.8h6.42v3.18c0 .48.32.84.78.84h11.2v1.68c-1.62.32-2.8 1.47-3.13 3.1-.42 2.17.95 4.28 3.12 4.72 2.15.44 4.28-.96 4.7-3.1.47-2.17-.94-4.3-3.1-4.72v-1.68H560c.44 0 .8-.36.8-.84v-4h-1.6zm-13.6-24.8c0-1.3 1.06-2.38 2.4-2.38 1.32 0 2.4 1.07 2.4 2.4 0 1.3-1.08 2.4-2.4 2.4-1.34 0-2.4-1.1-2.4-2.4zm-16 11.23h12.8v2.4h-12.8zm0 7.2h12.8v2.4h-12.8zM550.4 84c0 1.33-1.08 2.4-2.4 2.4-1.34 0-2.4-1.07-2.4-2.4 0-1.3 1.06-2.4 2.4-2.4 1.32 0 2.4 1.1 2.4 2.4z" stroke="#fff" stroke-opacity="0" fill="#fff"/><path d="M567.2 64.8h-16c-.45 0-.8.36-.8.8v5.6c0 .44.35.8.8.8h16c.45 0 .8-.36.8-.8v-5.6c0-.44-.35-.8-.8-.8zm-.8 5.6H552v-4h14.4z" stroke="#fff" stroke-opacity="0" fill="#fff"/><use xlink:href="#x" transform="matrix(1,0,0,1,591,60) translate(0 14.4)"/><use xlink:href="#y" transform="matrix(1,0,0,1,591,60) translate(45.3 14.4)"/><use xlink:href="#z" transform="matrix(1,0,0,1,591,60) translate(87.3 14.4)"/><path d="M1240.95 350.3l441.42 140.14" stroke="#000" stroke-width="2" fill="none"/><path d="M1240.67 351.26l-3.83-1.2V350h4.24z"/><path d="M1696.92 495.06l-15 .1 2.8-8.83z" stroke="#000" stroke-width="2"/><path d="M1300.94 290.35l435.24 163.16" stroke="#000" stroke-width="2" fill="none"/><path d="M1301.3 289.42l-.7 1.88-.6-.23v-2.14z"/><path d="M1750.47 458.86l-15-.66 3.27-8.68z" stroke="#000" stroke-width="2"/><use xlink:href="#A" transform="matrix(1,0,0,1,1363.5273565591945,280.6057701623963) translate(0 14.4)"/><use xlink:href="#B" transform="matrix(1,0,0,1,1363.5273565591945,280.6057701623963) translate(87.8 14.4)"/><use xlink:href="#C" transform="matrix(1,0,0,1,1363.5273565591945,280.6057701623963) translate(0 36)"/><use xlink:href="#D" transform="matrix(1,0,0,1,1363.5273565591945,280.6057701623963) translate(78.30000000000001 36)"/><path d="M20 838.57h160v120H20z" stroke="#000" stroke-width="2" fill="#fff"/><use xlink:href="#E" transform="matrix(1,0,0,1,25,843.5678579415944) translate(10.424999999999983 59.0875)"/><use xlink:href="#F" transform="matrix(1,0,0,1,25,843.5678579415944) translate(75.77499999999999 59.0875)"/><path d="M458.3 916.83v9.32c0 1.17-.6 2.24-1.6 2.82l-27.2 16.13c-1 .58-2.2.58-3.2 0l-27.2-16.13c-1-.58-1.6-1.65-1.6-2.82v-10.5l25.6-9.02 4.9-1.75 4.8 1.94z" stroke="#000" stroke-opacity="0" stroke-width="8" fill="#85cbf8"/><path d="M398.6 886.62l21.3-25.35 37.5 25.35-31 19.33-27.8-19.33z" stroke="#000" stroke-opacity="0" stroke-width="8" fill="#9fddff"/><path d="M458.3 918.48v3.5l-8.9 5.83c-.6.4-1.4.4-1.9-.1L429 912.18c-.6-.5-1.4-.5-2 0l-18.5 15.54c-.5.5-1.3.5-1.9.1l-9.1-6.02v-4.56l25.6-12.14h9.9z" stroke="#000" stroke-opacity="0" stroke-width="8" fill="#7bbeeb"/><path d="M475.7 869.23l-26.3-17.38c-.6-.4-1.4-.3-1.9.1l-19.5 16.4 29.4 18.27 18.4-14.86.3-.3c.5-.77.3-1.74-.4-2.23zm-47.7-.87l-19.5-16.42c-.5-.4-1.3-.48-1.9-.1l-26.3 17.4-.3.28c-.6.68-.5 1.75.2 2.24l18.4 14.96 16.6-10.3" stroke="#000" stroke-opacity="0" stroke-width="8" fill="#85cbf8"/><path d="M428 904.88l-19.5 16.42c-.5.48-1.3.48-1.9.1l-26.3-17.3c-.7-.48-.9-1.45-.4-2.23l.3-.3 18.4-14.95 29.4 18.26 29.4-18.26 18.4 14.96c.7.48.8 1.55.2 2.23l-.3.3-26.3 17.3c-.6.38-1.4.38-1.9-.1L428 904.88z" stroke="#000" stroke-opacity="0" stroke-width="8" fill="#85cbf8"/><path d="M420.5 874.67c.3 0 .5-.1.8-.3l2.2-1.25c.7-.5.9-1.46.5-2.24-.5-.77-1.5-.97-2.2-.48l-2.2 1.26c-.5.4-.8.88-.8 1.36.1.97.8 1.65 1.7 1.65z" stroke="#000" stroke-opacity="0" stroke-width="8" fill="#8d6c9f"/><path d="M459.9 886.62l16.9-13.6c.3-.2.5-.48.7-.78.9-1.45.5-3.4-1-4.37l-26.2-17.3c-1.2-.86-2.7-.76-3.8.2L428 866.33l-18.4-15.54c-1.1-.97-2.6-1.07-3.9-.2l-26.3 17.3c-.2.2-.5.38-.7.67-1.1 1.36-.9 3.3.5 4.47l16.9 13.6-16.9 13.7c-.3.2-.5.38-.7.68-.9 1.55-.5 3.5.9 4.46l16.5 10.8v9.9c0 1.74.8 3.3 2.3 4.17l27.2 16.13c1.6.87 3.4.87 4.9 0l27.3-16.13c1.5-.87 2.3-2.43 2.3-4.18v-9.32c0-.1 0-.2-.1-.4l16.8-10.97c.2-.2.5-.38.7-.68 1.1-1.36.9-3.4-.5-4.46zm-11.4-33.4l26.3 17.28-17.6 14.18-26.5-16.52zm-41 0l19.5 16.4h.1l27.2 16.9-26.2 16.42-.1-.1-.1.1-26.2-16.32 14.4-8.94c.7-.48.9-1.45.5-2.23-.5-.68-1.5-.97-2.2-.5l-15.6 9.73-17.6-14.18zm-8.7 35.34l26.5 16.52-17.8 15.05-26.3-17.3zm57.9 37.6c0 .58-.3 1.06-.8 1.35l-27.2 16.24c-.5.3-1.1.3-1.6 0l-27.2-16.23c-.5-.28-.8-.76-.8-1.35v-7.77l6.7 4.37c1.2.78 2.7.68 3.8-.2l18.4-15.53 18.5 15.54c1.1.87 2.6.97 3.8.2l6.4-4.28zm-8.2-6.03l-17.8-15.05 26.5-16.52 17.7 14.18z" stroke="#000" stroke-opacity="0" stroke-width="8" fill="#8d6c9f"/><path d="M429.5 912.46h-3.2c-.9 0-1.6.68-1.6 1.55 0 .9.7 1.66 1.6 1.66h3.2c.9 0 1.6-.77 1.6-1.65 0-.86-.7-1.54-1.6-1.54zm0 7.96h-3.2c-.9 0-1.6.78-1.6 1.65 0 .88.7 1.56 1.6 1.56h3.2c.9 0 1.6-.68 1.6-1.56 0-.87-.7-1.65-1.6-1.65zm0 8.07h-3.2c-.9 0-1.6.67-1.6 1.54s.7 1.55 1.6 1.55h3.2c.9 0 1.6-.7 1.6-1.56 0-.87-.7-1.55-1.6-1.55zm0 7.95h-3.2c-.9 0-1.6.68-1.6 1.55 0 .88.7 1.66 1.6 1.66h3.2c.9 0 1.6-.78 1.6-1.66 0-.87-.7-1.55-1.6-1.55z" stroke="#000" stroke-opacity="0" stroke-width="8" fill="#8d6c9f"/><path d="M182 898.57h180.86" stroke="#000" stroke-width="2" fill="none"/><path d="M182.03 899.57H181v-2h1.03z"/><path d="M378.12 898.57l-14.26 4.63v-9.27z" stroke="#000" stroke-width="2"/><use xlink:href="#G" transform="matrix(1,0,0,1,180.3355718483382,872.9678579415945) translate(0 14.4)"/><use xlink:href="#H" transform="matrix(1,0,0,1,180.3355718483382,872.9678579415945) translate(56.35000000000001 14.4)"/><use xlink:href="#I" transform="matrix(1,0,0,1,180.3355718483382,872.9678579415945) translate(82.80000000000001 14.4)"/><use xlink:href="#J" transform="matrix(1,0,0,1,180.3355718483382,872.9678579415945) translate(149.10000000000002 14.4)"/><path d="M560 520h120v120H560V520z" stroke="#fff" stroke-opacity="0" stroke-width="2" fill="#d86613"/><path d="M656.8 620h-19.72c-.64 0-1.15-.32-1.4-.88l-27.92-58.32h-11.78c-.9 0-1.6-.72-1.6-1.6v-17.6c0-.88.7-1.6 1.6-1.6h24.65c.64 0 1.15.32 1.4.88l27.8 58.32h6.97c.9 0 1.6.72 1.6 1.6v17.6c0 .88-.7 1.6-1.6 1.6zm-18.7-3.2h17.1v-14.4h-6.4c-.64 0-1.15-.32-1.4-.88l-27.8-58.32H597.6v14.4h11.2c.65 0 1.16.32 1.48.88z" stroke="#fff" stroke-opacity="0" stroke-width="2" fill="#fff"/><path d="M603.96 620h-20.8c-.55 0-1.05-.3-1.37-.73-.33-.54-.33-1.12-.08-1.6l21.78-45.46c.24-.58.8-.92 1.4-.92.65 0 1.18.34 1.46.88l10.4 21.43c.26.43.26.92 0 1.4L605.42 619c-.2.63-.77 1.02-1.44 1.02zm-18.24-3.22h17.24l10.6-22.36-8.6-17.88z" stroke="#fff" stroke-opacity="0" stroke-width="2" fill="#fff"/><use xlink:href="#K" transform="matrix(1,0,0,1,530,649) translate(13.449999999999989 14.4)"/><use xlink:href="#L" transform="matrix(1,0,0,1,530,649) translate(81.85 14.4)"/><use xlink:href="#m" transform="matrix(1,0,0,1,530,649) translate(60.574999999999996 36)"/><path d="M428.57 865.5l144.78-210.26" stroke="#000" stroke-width="2" fill="none"/><path d="M428.8 865.63l-.8.7-.77-.66.53-.76z"/><path d="M582 642.67l-4.27 14.37-7.64-5.25z" stroke="#000" stroke-width="2"/><use xlink:href="#M" transform="matrix(1,0,0,1,349.22124193095567,696.7845783660302) translate(0 14.4)"/><use xlink:href="#N" transform="matrix(1,0,0,1,349.22124193095567,696.7845783660302) translate(40.45 14.4)"/><use xlink:href="#O" transform="matrix(1,0,0,1,349.22124193095567,696.7845783660302) translate(127.7 14.4)"/><path d="M540 730h862v400H540z" stroke="#cd2264" stroke-width="2" fill="#fff" fill-opacity="0"/><path d="M540 730h56v56h-56v-56z" stroke="#fff" stroke-opacity="0" fill="#cd2264"/><path d="M579.2 766.78h-22.4v-2.4h6.4c.45 0 .8-.35.8-.8v-3.98c0-.44-.35-.8-.8-.8h-6.4v-1.6h6.4c.45 0 .8-.36.8-.8v-4c0-.43-.35-.8-.8-.8h-6.4v-2.38h22.4v4h1.6v-4.8c0-.48-.36-.84-.8-.84h-11.2v-1.6c1.6-.32 2.78-1.47 3.1-3.1.47-2.17-.94-4.28-3.1-4.72-2.17-.44-4.27.96-4.73 3.1-.42 2.17.95 4.3 3.12 4.72v1.6H556c-.46 0-.78.36-.78.84v3.2h-6.43c-.44 0-.8.35-.8.8v3.98c0 .44.36.8.8.8h6.42v1.6h-6.43c-.44 0-.8.36-.8.8v4c0 .43.36.8.8.8h6.42v3.18c0 .48.32.84.78.84h11.2v1.68c-1.62.32-2.8 1.47-3.13 3.1-.42 2.17.95 4.28 3.12 4.72 2.15.44 4.28-.96 4.7-3.1.47-2.17-.94-4.3-3.1-4.72v-1.68H580c.44 0 .8-.36.8-.84v-4h-1.6zm-13.6-24.8c0-1.3 1.06-2.38 2.4-2.38 1.32 0 2.4 1.07 2.4 2.4 0 1.3-1.08 2.4-2.4 2.4-1.34 0-2.4-1.1-2.4-2.4zm-16 11.23h12.8v2.4h-12.8zm0 7.2h12.8v2.4h-12.8zm20.8 13.6c0 1.33-1.08 2.4-2.4 2.4-1.34 0-2.4-1.07-2.4-2.4 0-1.3 1.06-2.4 2.4-2.4 1.32 0 2.4 1.1 2.4 2.4z" stroke="#fff" stroke-opacity="0" fill="#fff"/><path d="M587.2 754.8h-16c-.45 0-.8.36-.8.8v5.6c0 .44.35.8.8.8h16c.45 0 .8-.36.8-.8v-5.6c0-.44-.35-.8-.8-.8zm-.8 5.6H572v-4h14.4z" stroke="#fff" stroke-opacity="0" fill="#fff"/><use xlink:href="#x" transform="matrix(1,0,0,1,611,750) translate(0 14.4)"/><use xlink:href="#y" transform="matrix(1,0,0,1,611,750) translate(45.3 14.4)"/><use xlink:href="#z" transform="matrix(1,0,0,1,611,750) translate(87.3 14.4)"/><path d="M820 838.57h120v120H820v-120z" stroke="#fff" stroke-opacity="0" stroke-width="2" fill="#d86613"/><path d="M916.8 938.57h-19.72c-.64 0-1.15-.32-1.4-.88l-27.92-58.33h-11.78c-.9 0-1.6-.72-1.6-1.6v-17.6c0-.88.7-1.6 1.6-1.6h24.65c.64 0 1.15.32 1.4.88l27.8 58.32h6.97c.9 0 1.6.72 1.6 1.6v17.6c0 .88-.7 1.6-1.6 1.6zm-18.7-3.2h17.1v-14.4h-6.4c-.64 0-1.15-.32-1.4-.88l-27.8-58.33H857.6v14.4h11.2c.65 0 1.16.32 1.48.88z" stroke="#fff" stroke-opacity="0" stroke-width="2" fill="#fff"/><path d="M863.96 938.57h-20.8c-.55 0-1.05-.3-1.37-.73-.33-.54-.33-1.12-.08-1.6l21.78-45.47c.24-.58.8-.92 1.4-.92.65 0 1.18.34 1.46.87l10.4 21.44c.26.44.26.93 0 1.4l-11.35 23.98c-.2.64-.77 1.03-1.44 1.03zm-18.24-3.22h17.24l10.6-22.36-8.6-17.9z" stroke="#fff" stroke-opacity="0" stroke-width="2" fill="#fff"/><use xlink:href="#K" transform="matrix(1,0,0,1,790,967.5678579415944) translate(5.1499999999999915 14.4)"/><use xlink:href="#P" transform="matrix(1,0,0,1,790,967.5678579415944) translate(73.55 14.4)"/><use xlink:href="#Q" transform="matrix(1,0,0,1,790,967.5678579415944) translate(132.95 14.4)"/><use xlink:href="#R" transform="matrix(1,0,0,1,790,967.5678579415944) translate(4.474999999999994 36)"/><use xlink:href="#m" transform="matrix(1,0,0,1,790,967.5678579415944) translate(116.675 36)"/><path d="M941 898.57h260.5" stroke="#000" stroke-width="2" fill="none"/><path d="M941.03 899.57H940v-2h1.03z"/><path d="M1216.76 898.57l-14.26 4.63v-9.27z" stroke="#000" stroke-width="2"/><use xlink:href="#u" transform="matrix(1,0,0,1,983,872.9678579415945) translate(0 14.4)"/><use xlink:href="#S" transform="matrix(1,0,0,1,983,872.9678579415945) translate(36.45 14.4)"/><use xlink:href="#q" transform="matrix(1,0,0,1,983,872.9678579415945) translate(100.8 14.4)"/><use xlink:href="#T" transform="matrix(1,0,0,1,983,872.9678579415945) translate(129.2 14.4)"/><path d="M1280 959.57V1100H428V965.52" stroke="#000" stroke-width="2" fill="none"/><path d="M1281 959.6h-2v-1.03h2z"/><path d="M428 950.26l4.64 14.26h-9.28z" stroke="#000" stroke-width="2"/><use xlink:href="#U" transform="matrix(1,0,0,1,704.0450071565026,1074.4) translate(0 14.4)"/><use xlink:href="#S" transform="matrix(1,0,0,1,704.0450071565026,1074.4) translate(65.30000000000001 14.4)"/><use xlink:href="#I" transform="matrix(1,0,0,1,704.0450071565026,1074.4) translate(129.65 14.4)"/><use xlink:href="#J" transform="matrix(1,0,0,1,704.0450071565026,1074.4) translate(195.95000000000002 14.4)"/><path d="M1340.8 897.96l398.04-306.67" stroke="#000" stroke-width="2" fill="none"/><path d="M1341.42 898.73l-1.42 1.1v-2.52l.2-.15z"/><path d="M1750.94 581.97l-8.48 12.38-5.65-7.34z" stroke="#000" stroke-width="2"/><use xlink:href="#V" transform="matrix(1,0,0,1,1418.4353160548408,678.2017988387013) translate(0 14.4)"/><use xlink:href="#I" transform="matrix(1,0,0,1,1418.4353160548408,678.2017988387013) translate(64.55000000000001 14.4)"/><use xlink:href="#W" transform="matrix(1,0,0,1,1418.4353160548408,678.2017988387013) translate(130.85000000000002 14.4)"/><path d="M475.62 898.55H801.5" stroke="#000" stroke-width="2" fill="none"/><path/><path d="M816.76 898.55l-14.26 4.63v-9.27z" stroke="#000" stroke-width="2"/><use xlink:href="#M" transform="matrix(1,0,0,1,599.7803333333334,851.3495026137911) translate(0 14.4)"/><use xlink:href="#q" transform="matrix(1,0,0,1,599.7803333333334,851.3495026137911) translate(40.45 14.4)"/><use xlink:href="#X" transform="matrix(1,0,0,1,599.7803333333334,851.3495026137911) translate(68.85 14.4)"/><use xlink:href="#Y" transform="matrix(1,0,0,1,599.7803333333334,851.3495026137911) translate(124.19999999999999 14.4)"/><use xlink:href="#Z" transform="matrix(1,0,0,1,599.7803333333334,851.3495026137911) translate(0 36)"/><use xlink:href="#aa" transform="matrix(1,0,0,1,599.7803333333334,851.3495026137911) translate(26.45 36)"/><path d="M1710.28 1463.6h-38.02c-2.04 0-3.67 1.63-3.67 3.64h45.3c0-2-1.63-3.63-3.62-3.64zM1672.28 1470.87h38.02c2 0 3.62-1.62 3.62-3.6h-45.3c.04 2 1.67 3.6 3.66 3.6z" fill-opacity="0"/><path d="M1713.9 1467.26c0 2-1.57 3.62-3.6 3.62h-38.05c-2.04.02-3.6-1.6-3.72-3.62h-65.03v3.62c0 5.03 4.08 9.1 9.12 9.1h101.75c5.04.02 9.12-4.05 9.12-9.1v-3.62zM1719.47 1423.96l-5.87 6.44c0 2.3-1.92 4.14-4.2 4.14h-91.93c-2.27-.02-4.2-1.86-4.2-4.14l-4.9-6.44h-4.8v6.44c0 7.62 6.24 13.78 13.9 13.76h91.94c7.67.02 13.9-6.14 13.9-13.76v-6.44z" fill="#7d7c7c"/><path d="M1714.38 1449.16c4.92-.03 9.12 4 9.12 9.02v7.35c0 5.06-4.08 9.1-9.12 9.1h-101.76c-5.04 0-9.12-4.04-9.12-9.06v-7.33c0-5 4.08-9.08 9.12-9.05zm-4.08 16.38c2.04 0 3.6-1.63 3.6-3.64 0-2-1.56-3.65-3.6-3.65h-38.04c-2.04 0-3.6 1.64-3.6 3.65 0 2 1.56 3.64 3.6 3.64h38.04M1709.4 1360c7.67 0 13.9 6.15 13.9 13.7v51.4c0 7.57-6.23 13.72-13.9 13.72h-91.93c-7.66 0-13.9-6.15-13.9-13.72v-51.4c0-7.55 6.24-13.7 13.9-13.7zm4.2 65.1v-51.4c0-2.27-1.92-4.08-4.2-4.08h-91.93c-2.27 0-4.2 1.8-4.2 4.1v51.38c0 2.2 1.93 4.1 4.2 4.1h91.94c2.28 0 4.2-1.8 4.2-4.1" fill="#d2d3d3"/><use xlink:href="#a" transform="matrix(1,0,0,1,1603.5,1480) translate(40.05 14.4)"/><path d="M1440.48 1159.12l304.22-562.84" stroke="#000" stroke-width="2" fill="none"/><path d="M1441.37 1159.57l-.23.43h-2.28l.75-1.38z"/><path d="M1751.96 582.85l-2.7 14.75-8.16-4.4z" stroke="#000" stroke-width="2"/><g><use xlink:href="#ab" transform="matrix(1,0,0,1,1580.5226684137053,904.6272394710052) translate(0 14.4)"/><use xlink:href="#I" transform="matrix(1,0,0,1,1580.5226684137053,904.6272394710052) translate(65.30000000000001 14.4)"/><use xlink:href="#ac" transform="matrix(1,0,0,1,1580.5226684137053,904.6272394710052) translate(131.60000000000002 14.4)"/></g><path d="M1379 1220H428V965.52" stroke="#000" stroke-width="2" fill="none"/><path d="M1380 1221h-1.03v-2h1.03z"/><path d="M428 950.26l4.64 14.26h-9.28z" stroke="#000" stroke-width="2"/><g><use xlink:href="#G" transform="matrix(1,0,0,1,867.427880333461,1194.4) translate(0 14.4)"/><use xlink:href="#ad" transform="matrix(1,0,0,1,867.427880333461,1194.4) translate(56.35000000000001 14.4)"/></g><path d="M1723.44 1423.44l57.34-385.14" stroke="#000" stroke-width="2" fill="none"/><path d="M1724.44 1423.56l-.6 3.98-.54-.08v-4.06z"/><path d="M1783.02 1023.2l2.5 14.8-9.18-1.37z" stroke="#000" stroke-width="2"/><g><use xlink:href="#ae" transform="matrix(1,0,0,1,1761.3739075668152,1211.7367205354528) translate(0 14.4)"/><use xlink:href="#af" transform="matrix(1,0,0,1,1761.3739075668152,1211.7367205354528) translate(42.25 14.4)"/><use xlink:href="#ag" transform="matrix(1,0,0,1,1761.3739075668152,1211.7367205354528) translate(145.5 14.4)"/></g><path d="M1783.4 899l-28.17-300.58" stroke="#000" stroke-width="2" fill="none"/><path d="M1784.5 900h-2l-.1-.93 2-.18z"/><path d="M1753.8 583.22l5.95 13.77-9.23.86z" stroke="#000" stroke-width="2"/><g><use xlink:href="#U" transform="matrix(1,0,0,1,1780.2141641403045,768.7093925226226) translate(0 14.4)"/><use xlink:href="#ah" transform="matrix(1,0,0,1,1780.2141641403045,768.7093925226226) translate(65.30000000000001 14.4)"/><use xlink:href="#w" transform="matrix(1,0,0,1,1780.2141641403045,768.7093925226226) translate(143.60000000000002 14.4)"/></g><path d="M1602.83 1423.77l-148.96-131.52" stroke="#000" stroke-width="2" fill="none"/><path d="M1603.58 1423.1v2.67l-1.43-1.26 1.33-1.5z"/><path d="M1442.43 1282.14l13.76 5.97-6.15 6.96z" stroke="#000" stroke-width="2"/><g><use xlink:href="#G" transform="matrix(1,0,0,1,1503.8444235414497,1317.370799281524) translate(0 14.4)"/><use xlink:href="#ai" transform="matrix(1,0,0,1,1503.8444235414497,1317.370799281524) translate(56.35000000000001 14.4)"/><use xlink:href="#ah" transform="matrix(1,0,0,1,1503.8444235414497,1317.370799281524) translate(74.85000000000001 14.4)"/><use xlink:href="#ac" transform="matrix(1,0,0,1,1503.8444235414497,1317.370799281524) translate(153.15000000000003 14.4)"/></g><path d="M1723.5 900h120v120h-120V900z" stroke="#fff" stroke-opacity="0" stroke-width="2" fill="#d86613"/><path d="M1820.3 1000h-19.72c-.64 0-1.15-.32-1.4-.88l-27.92-58.32h-11.78c-.9 0-1.6-.72-1.6-1.6v-17.6c0-.88.7-1.6 1.6-1.6h24.65c.64 0 1.15.32 1.4.88l27.8 58.32h6.97c.9 0 1.6.72 1.6 1.6v17.6c0 .88-.7 1.6-1.6 1.6zm-18.7-3.2h17.1v-14.4h-6.4c-.64 0-1.15-.32-1.4-.88l-27.8-58.32h-22.02v14.4h11.2c.65 0 1.16.32 1.48.88z" stroke="#fff" stroke-opacity="0" stroke-width="2" fill="#fff"/><path d="M1767.46 1000h-20.8c-.55 0-1.05-.3-1.37-.73-.33-.54-.33-1.12-.08-1.6L1767 952.2c.24-.58.8-.92 1.4-.92.65 0 1.18.34 1.46.88l10.4 21.43c.26.43.26.92 0 1.4L1768.92 999c-.2.63-.77 1.02-1.44 1.02zm-18.24-3.22h17.24l10.6-22.36-8.6-17.88z" stroke="#fff" stroke-opacity="0" stroke-width="2" fill="#fff"/><path d="M1843.5 940h173v60h-173z" stroke="#000" stroke-opacity="0" stroke-width="2" fill="#fff" fill-opacity="0"/><g><use xlink:href="#aj" transform="matrix(1,0,0,1,1848.5,945) translate(9.949999999999989 17.525)"/><use xlink:href="#ak" transform="matrix(1,0,0,1,1848.5,945) translate(92.2 17.525)"/><use xlink:href="#al" transform="matrix(1,0,0,1,1848.5,945) translate(14.199999999999989 39.125)"/><use xlink:href="#am" transform="matrix(1,0,0,1,1848.5,945) translate(18.69999999999999 39.125)"/><use xlink:href="#m" transform="matrix(1,0,0,1,1848.5,945) translate(89.94999999999999 39.125)"/></g><path d="M1807 486.48l-13.4-14.62-18.84 48.1 18.85 48.12 13.4-14.62v-66.98z" fill="#2e73b8"/><path d="M1770.22 580l23.4-11.88v-96.24L1770.2 460l-27.8 60 27.8 60z" fill="#5294cf"/><path d="M1736.78 580h33.43V460h-33.42l-20.07 60 20.08 60z" fill="#2e73b8"/><path d="M1713.38 568.12l23.4 11.88V460l-23.4 11.88-10.36 48.12 10.36 48.12z" fill="#205b99"/><path d="M1700 553.45l13.38 14.62v-96.2l-13.38 14.6v66.98z" fill="#19486f"/><path d="M1800 500h140v60h-140z" stroke="#000" stroke-opacity="0" stroke-width="2" fill="#fff" fill-opacity="0"/><g><use xlink:href="#an" transform="matrix(1,0,0,1,1805,505) translate(6.649999999999999 17.525)"/><use xlink:href="#ao" transform="matrix(1,0,0,1,1805,505) translate(49.6 17.525)"/><use xlink:href="#ap" transform="matrix(1,0,0,1,1805,505) translate(39.599999999999994 39.125)"/></g><path d="M1180 230h120v120h-120V230z" stroke="#fff" stroke-opacity="0" stroke-width="2" fill="#d86613"/><path d="M1276.8 330h-19.72c-.64 0-1.15-.32-1.4-.88l-27.92-58.32h-11.78c-.9 0-1.6-.72-1.6-1.6v-17.6c0-.88.7-1.6 1.6-1.6h24.65c.64 0 1.15.32 1.4.88l27.8 58.32h6.97c.9 0 1.6.72 1.6 1.6v17.6c0 .88-.7 1.6-1.6 1.6zm-18.7-3.2h17.1v-14.4h-6.4c-.64 0-1.15-.32-1.4-.88l-27.8-58.32h-22.02v14.4h11.2c.65 0 1.16.32 1.48.88z" stroke="#fff" stroke-opacity="0" stroke-width="2" fill="#fff"/><path d="M1223.96 330h-20.8c-.55 0-1.05-.3-1.37-.73-.33-.54-.33-1.12-.08-1.6l21.78-45.46c.24-.58.8-.92 1.4-.92.65 0 1.18.34 1.46.88l10.4 21.43c.26.43.26.92 0 1.4L1225.42 329c-.2.63-.77 1.02-1.44 1.02zm-18.24-3.22h17.24l10.6-22.36-8.6-17.88z" stroke="#fff" stroke-opacity="0" stroke-width="2" fill="#fff"/><path d="M1160 180h180v60h-180z" stroke="#000" stroke-opacity="0" stroke-width="2" fill="#fff" fill-opacity="0"/><g><use xlink:href="#aq" transform="matrix(1,0,0,1,1165,185) translate(9.949999999999989 17.525)"/><use xlink:href="#ar" transform="matrix(1,0,0,1,1165,185) translate(82.3 17.525)"/><use xlink:href="#al" transform="matrix(1,0,0,1,1165,185) translate(53.324999999999996 39.125)"/><use xlink:href="#m" transform="matrix(1,0,0,1,1165,185) translate(57.824999999999996 39.125)"/></g><path d="M360 810h84v40h-84z" stroke="#000" stroke-opacity="0" stroke-width="2" fill="#fff" fill-opacity="0"/><g><use xlink:href="#as" transform="matrix(1,0,0,1,365,814.9999999999999) translate(-5.114506172839491 19.488888888888887)"/></g><path d="M1220 838.57h120v120h-120v-120z" stroke="#fff" stroke-opacity="0" stroke-width="2" fill="#d86613"/><path d="M1316.8 938.57h-19.72c-.64 0-1.15-.32-1.4-.88l-27.92-58.33h-11.78c-.9 0-1.6-.72-1.6-1.6v-17.6c0-.88.7-1.6 1.6-1.6h24.65c.64 0 1.15.32 1.4.88l27.8 58.32h6.97c.9 0 1.6.72 1.6 1.6v17.6c0 .88-.7 1.6-1.6 1.6zm-18.7-3.2h17.1v-14.4h-6.4c-.64 0-1.15-.32-1.4-.88l-27.8-58.33h-22.02v14.4h11.2c.65 0 1.16.32 1.48.88z" stroke="#fff" stroke-opacity="0" stroke-width="2" fill="#fff"/><path d="M1263.96 938.57h-20.8c-.55 0-1.05-.3-1.37-.73-.33-.54-.33-1.12-.08-1.6l21.78-45.47c.24-.58.8-.92 1.4-.92.65 0 1.18.34 1.46.87l10.4 21.44c.26.44.26.93 0 1.4l-11.35 23.98c-.2.64-.77 1.03-1.44 1.03zm-18.24-3.22h17.24l10.6-22.36-8.6-17.9z" stroke="#fff" stroke-opacity="0" stroke-width="2" fill="#fff"/><path d="M1160 790h240v60h-240z" stroke="#000" stroke-opacity="0" stroke-width="2" fill="#fff" fill-opacity="0"/><g><use xlink:href="#K" transform="matrix(1,0,0,1,1165.0000000000005,794.9999999999999) translate(31.700000000000003 17.525)"/><use xlink:href="#at" transform="matrix(1,0,0,1,1165.0000000000005,794.9999999999999) translate(100.10000000000001 17.525)"/><use xlink:href="#au" transform="matrix(1,0,0,1,1165.0000000000005,794.9999999999999) translate(170.35000000000002 17.525)"/><use xlink:href="#am" transform="matrix(1,0,0,1,1165.0000000000005,794.9999999999999) translate(49.94999999999999 39.125)"/><use xlink:href="#m" transform="matrix(1,0,0,1,1165.0000000000005,794.9999999999999) translate(121.19999999999999 39.125)"/></g><path d="M1380 1160h120v120h-120v-120z" stroke="#fff" stroke-opacity="0" stroke-width="2" fill="#d86613"/><path d="M1476.8 1260h-19.72c-.64 0-1.15-.32-1.4-.88l-27.92-58.32h-11.78c-.9 0-1.6-.72-1.6-1.6v-17.6c0-.88.7-1.6 1.6-1.6h24.65c.64 0 1.15.32 1.4.88l27.8 58.32h6.97c.9 0 1.6.72 1.6 1.6v17.6c0 .88-.7 1.6-1.6 1.6zm-18.7-3.2h17.1v-14.4h-6.4c-.64 0-1.15-.32-1.4-.88l-27.8-58.32h-22.02v14.4h11.2c.65 0 1.16.32 1.48.88z" stroke="#fff" stroke-opacity="0" stroke-width="2" fill="#fff"/><path d="M1423.96 1260h-20.8c-.55 0-1.05-.3-1.37-.73-.33-.54-.33-1.12-.08-1.6l21.78-45.46c.24-.58.8-.92 1.4-.92.65 0 1.18.34 1.46.88l10.4 21.43c.26.43.26.92 0 1.4l-11.35 23.98c-.2.63-.77 1.02-1.44 1.02zm-18.24-3.22h17.24l10.6-22.36-8.6-17.88z" stroke="#fff" stroke-opacity="0" stroke-width="2" fill="#fff"/><path d="M1500 1180h158v60h-158z" stroke="#000" stroke-opacity="0" stroke-width="2" fill="#fff" fill-opacity="0"/><g><use xlink:href="#av" transform="matrix(1,0,0,1,1505,1185) translate(7.424999999999983 17.525)"/><use xlink:href="#aw" transform="matrix(1,0,0,1,1505,1185) translate(72.725 17.525)"/><use xlink:href="#al" transform="matrix(1,0,0,1,1505,1185) translate(8.149999999999991 39.125)"/><use xlink:href="#ax" transform="matrix(1,0,0,1,1505,1185) translate(12.649999999999991 39.125)"/><use xlink:href="#m" transform="matrix(1,0,0,1,1505,1185) translate(81 39.125)"/></g><path d="M1180 380h190v60h-190z" stroke="#000" stroke-opacity="0" stroke-width="2" fill="#fff" fill-opacity="0"/><g><use xlink:href="#U" transform="matrix(1,0,0,1,1185,385) translate(4.224999999999994 17.525)"/><use xlink:href="#ay" transform="matrix(1,0,0,1,1185,385) translate(69.525 17.525)"/><use xlink:href="#az" transform="matrix(1,0,0,1,1185,385) translate(117.92500000000001 17.525)"/><use xlink:href="#al" transform="matrix(1,0,0,1,1185,385) translate(39.64999999999999 39.125)"/><use xlink:href="#aA" transform="matrix(1,0,0,1,1185,385) translate(44.14999999999999 39.125)"/><use xlink:href="#w" transform="matrix(1,0,0,1,1185,385) translate(110.45 39.125)"/></g><defs><path d="M45-84c0 64 52 80 104 63 1 25-30 25-55 25-56 0-80-32-80-88 0-76 62-98 131-80v46h-10c-5-15-4-31-23-35-47-10-67 21-67 69" id="aB"/><path d="M65-12l28 4v8H7v-8l28-4v-226l-28-4v-8h58v238" id="aC"/><path d="M47-200c-23 0-25-39 0-38 13 0 18 7 20 19-1 11-8 19-20 19zM65-12l28 4v8H8v-8l28-4v-141l-24-4v-8h53v153" id="aD"/><path d="M84-170c49 0 66 33 63 87H46c-8 60 38 80 95 63v10C128-2 108 4 88 4 34 4 14-29 14-84c-1-54 22-86 70-86zm33 73c12-57-57-82-69-24-1 7-2 15-2 24h71" id="aE"/><path d="M125-118c4-37-41-34-68-26v132l23 4v8H8C5-13 21-9 28-12v-141c-7-3-23 1-20-12h47l2 13c31-23 98-29 98 31v109c7 3 23-1 20 12h-72v-8l22-4v-106" id="aF"/><path d="M54-38c-1 25 24 26 44 20v12C71 10 25 9 25-35v-115H4c-2-14 14-10 21-15l18-38h11v38h38v15H54v112" id="aG"/><g id="a"><use transform="matrix(0.05,0,0,0.05,0,0)" xlink:href="#aB"/><use transform="matrix(0.05,0,0,0.05,7.95,0)" xlink:href="#aC"/><use transform="matrix(0.05,0,0,0.05,12.949999999999998,0)" xlink:href="#aD"/><use transform="matrix(0.05,0,0,0.05,17.95,0)" xlink:href="#aE"/><use transform="matrix(0.05,0,0,0.05,25.899999999999995,0)" xlink:href="#aF"/><use transform="matrix(0.05,0,0,0.05,34.9,0)" xlink:href="#aG"/></g><path d="M134-16c44-1 70-21 70-64v-142l-32-4v-10h80v10l-30 4v141c0 57-33 84-91 85-58 0-93-26-93-82v-144l-30-4v-10h94v10l-30 4c7 82-31 209 62 206" id="aH"/><path d="M166-85c3 67-44 102-111 85l1 64 29 4v9H6v-9l21-4v-217c-7-3-22 1-19-12h46l1 9c11-8 26-14 45-14 47 2 64 36 66 85zM56-13c53 14 83-14 78-72 7-53-33-79-78-60v132" id="aI"/><path d="M90-170c52 0 76 32 76 87 0 54-24 87-77 87-51 0-75-34-75-87 0-54 24-87 76-87zM89-10c39 0 46-35 46-73 0-39-7-73-46-73-39 1-44 34-44 73s6 72 44 73" id="aJ"/><path d="M32-163c41-10 102-14 102 39v112c8 3 24-2 21 12h-45l-4-17C83 13 3 13 13-46c-2-50 45-50 92-51 4-36-5-70-42-56-6 2-12 4-16 6-4 7 0 23-15 20v-36zM42-47c0 41 41 33 63 22v-59c-34 1-63-1-63 37" id="aK"/><path d="M13-81c0-71 46-101 114-85l-1-72-28-4v-8h57v238c8 3 24-2 21 12h-47l-2-12C80 23 13-1 13-81zm77-74c-37 1-44 33-45 74 0 38 9 66 45 66 14 0 27-3 36-7v-130c-10-1-24-3-36-3" id="aL"/><path d="M41-130c7 48 86 23 86 84 0 56-69 57-112 41v-40c20 0 9 29 31 31 35 19 77-26 41-50-27-18-72-13-72-59 0-50 58-52 100-41v36c-19 1-8-25-28-25-21-7-50-1-46 23" id="aM"/><g id="b"><use transform="matrix(0.05,0,0,0.05,0,0)" xlink:href="#aH"/><use transform="matrix(0.05,0,0,0.05,12.950000000000001,0)" xlink:href="#aI"/><use transform="matrix(0.05,0,0,0.05,21.950000000000003,0)" xlink:href="#aC"/><use transform="matrix(0.05,0,0,0.05,26.950000000000003,0)" xlink:href="#aJ"/><use transform="matrix(0.05,0,0,0.05,35.95,0)" xlink:href="#aK"/><use transform="matrix(0.05,0,0,0.05,43.900000000000006,0)" xlink:href="#aL"/><use transform="matrix(0.05,0,0,0.05,52.900000000000006,0)" xlink:href="#aM"/></g><path d="M240-154L185 4h-14l-41-109L90 4H77L20-153c-7-3-23 1-20-12h79v8l-27 4L91-41l40-108h14l40 109 38-113-28-4v-8h63v8" id="aN"/><g id="c"><use transform="matrix(0.05,0,0,0.05,0,0)" xlink:href="#aF"/><use transform="matrix(0.05,0,0,0.05,9,0)" xlink:href="#aE"/><use transform="matrix(0.05,0,0,0.05,16.95,0)" xlink:href="#aN"/></g><path d="M53-14c58 12 82-15 82-73 0-52-35-77-82-58v131zM89 4C64 4 42-2 24-9v-229l-24-4v-8h53l-1 94c48-33 114-4 114 69 0 57-23 91-77 91" id="aO"/><path d="M60-80l68-73c-7-3-20 0-17-12h58c3 13-13 9-20 12l-47 48 60 93c7 3 21-1 18 12h-68c-3-12 9-9 15-12L82-83 60-60v48c7 3 21-1 18 12H10v-8l21-4v-226l-24-4v-8h53v170" id="aP"/><g id="d"><use transform="matrix(0.05,0,0,0.05,0,0)" xlink:href="#aO"/><use transform="matrix(0.05,0,0,0.05,9,0)" xlink:href="#aK"/><use transform="matrix(0.05,0,0,0.05,16.95,0)" xlink:href="#aF"/><use transform="matrix(0.05,0,0,0.05,25.950000000000003,0)" xlink:href="#aP"/></g><path d="M57-145c16-10 35-24 60-25v45c-19 1-8-30-40-17l-20 6v124l29 4v8H7v-8l21-4v-141c-8-3-24 2-21-12h48" id="aQ"/><g id="e"><use transform="matrix(0.05,0,0,0.05,0,0)" xlink:href="#aG"/><use transform="matrix(0.05,0,0,0.05,5,0)" xlink:href="#aQ"/><use transform="matrix(0.05,0,0,0.05,10.95,0)" xlink:href="#aK"/><use transform="matrix(0.05,0,0,0.05,18.9,0)" xlink:href="#aF"/><use transform="matrix(0.05,0,0,0.05,27.899999999999995,0)" xlink:href="#aM"/><use transform="matrix(0.05,0,0,0.05,34.9,0)" xlink:href="#aK"/><use transform="matrix(0.05,0,0,0.05,42.85,0)" xlink:href="#aB"/><use transform="matrix(0.05,0,0,0.05,50.800000000000004,0)" xlink:href="#aG"/><use transform="matrix(0.05,0,0,0.05,55.800000000000004,0)" xlink:href="#aD"/><use transform="matrix(0.05,0,0,0.05,60.800000000000004,0)" xlink:href="#aJ"/><use transform="matrix(0.05,0,0,0.05,69.80000000000001,0)" xlink:href="#aF"/></g><g id="f"><use transform="matrix(0.05,0,0,0.05,0,0)" xlink:href="#aO"/><use transform="matrix(0.05,0,0,0.05,9,0)" xlink:href="#aK"/><use transform="matrix(0.05,0,0,0.05,16.95,0)" xlink:href="#aF"/><use transform="matrix(0.05,0,0,0.05,25.950000000000003,0)" xlink:href="#aP"/></g><g id="g"><use transform="matrix(0.05,0,0,0.05,0,0)" xlink:href="#aG"/><use transform="matrix(0.05,0,0,0.05,5,0)" xlink:href="#aQ"/><use transform="matrix(0.05,0,0,0.05,10.95,0)" xlink:href="#aK"/><use transform="matrix(0.05,0,0,0.05,18.9,0)" xlink:href="#aF"/><use transform="matrix(0.05,0,0,0.05,27.899999999999995,0)" xlink:href="#aM"/><use transform="matrix(0.05,0,0,0.05,34.9,0)" xlink:href="#aK"/><use transform="matrix(0.05,0,0,0.05,42.85,0)" xlink:href="#aB"/><use transform="matrix(0.05,0,0,0.05,50.800000000000004,0)" xlink:href="#aG"/><use transform="matrix(0.05,0,0,0.05,55.800000000000004,0)" xlink:href="#aD"/><use transform="matrix(0.05,0,0,0.05,60.800000000000004,0)" xlink:href="#aJ"/><use transform="matrix(0.05,0,0,0.05,69.80000000000001,0)" xlink:href="#aF"/></g><path d="M52-115c0 93 80 130 150 87l7-35h11l-1 55c-23 7-52 12-83 12C60 4 19-37 15-115c-5-113 97-141 201-114l1 51h-12l-5-30c-15-9-39-16-62-16-66 0-86 41-86 109" id="aR"/><path d="M178-68c0 79-95 82-154 59v-54h12c1 35 22 52 60 52 50 0 69-58 33-82-39-24-105-21-105-85 0-67 86-66 142-53v49h-12l-6-29c-31-27-121-7-89 42 28 43 119 24 119 101" id="aS"/><path d="M256-236v10l-26 4L135 5h-9L31-222l-27-4v-10h95v10l-31 4 71 174 71-174-31-4v-10h77" id="aT"/><g id="h"><use transform="matrix(0.05,0,0,0.05,0,0)" xlink:href="#aR"/><use transform="matrix(0.05,0,0,0.05,12,0)" xlink:href="#aS"/><use transform="matrix(0.05,0,0,0.05,22,0)" xlink:href="#aT"/></g><path d="M104-123c39 3 61 21 62 59C167 7 83 12 19-4l-2-50h12c2 29 16 43 51 43 38 0 54-19 54-55 2-43-34-49-75-50v-14c37 0 64-7 64-48 0-47-47-56-81-36l-6 29H24v-46c51-13 135-13 131 51-2 34-20 52-51 57" id="aU"/><g id="i"><use transform="matrix(0.05,0,0,0.05,0,0)" xlink:href="#aS"/><use transform="matrix(0.05,0,0,0.05,10,0)" xlink:href="#aU"/></g><path d="M124-13C89 8 26 15 26-45v-108c-8-3-24 2-21-12h50v118c-3 37 42 32 69 25v-131l-25-4v-8h54v153c8 3 24-2 21 12h-48" id="aV"/><g id="j"><use transform="matrix(0.05,0,0,0.05,0,0)" xlink:href="#aO"/><use transform="matrix(0.05,0,0,0.05,9,0)" xlink:href="#aV"/><use transform="matrix(0.05,0,0,0.05,18,0)" xlink:href="#aB"/><use transform="matrix(0.05,0,0,0.05,25.950000000000003,0)" xlink:href="#aP"/><use transform="matrix(0.05,0,0,0.05,34.95,0)" xlink:href="#aE"/><use transform="matrix(0.05,0,0,0.05,42.900000000000006,0)" xlink:href="#aG"/></g><g id="k"><use transform="matrix(0.05,0,0,0.05,0,0)" xlink:href="#aR"/><use transform="matrix(0.05,0,0,0.05,12,0)" xlink:href="#aS"/><use transform="matrix(0.05,0,0,0.05,22,0)" xlink:href="#aT"/></g><path d="M75-108c48 3 76-12 76-58s-28-57-76-54v112zm111-58c-1 60-46 78-111 74v78l37 5v9H13v-9l28-5v-208l-31-4v-10c81 1 178-14 176 70" id="aW"/><g id="l"><use transform="matrix(0.05,0,0,0.05,0,0)" xlink:href="#aW"/><use transform="matrix(0.05,0,0,0.05,10,0)" xlink:href="#aK"/><use transform="matrix(0.05,0,0,0.05,17.95,0)" xlink:href="#aQ"/><use transform="matrix(0.05,0,0,0.05,23.9,0)" xlink:href="#aM"/><use transform="matrix(0.05,0,0,0.05,30.899999999999995,0)" xlink:href="#aE"/><use transform="matrix(0.05,0,0,0.05,38.85,0)" xlink:href="#aQ"/></g><path d="M111-226l-36 4v207c33-1 73 2 101-4l11-49h11l-3 68H10v-9l31-5v-208l-31-4v-10h101v10" id="aX"/><path d="M126-118c4-37-42-32-68-25v131l24 4v8H8C5-13 21-9 28-12v-141c-7-3-23 1-20-12h48l1 13c22-15 77-30 92 2 32-22 104-36 104 29v109c8 3 24-2 21 12h-75v-8l25-4v-106c3-39-45-31-72-24 7 37 1 88 3 130l25 4v8h-78v-8l24-4v-106" id="aY"/><g id="m"><use transform="matrix(0.05,0,0,0.05,0,0)" xlink:href="#aX"/><use transform="matrix(0.05,0,0,0.05,10.950000000000001,0)" xlink:href="#aK"/><use transform="matrix(0.05,0,0,0.05,18.900000000000002,0)" xlink:href="#aY"/><use transform="matrix(0.05,0,0,0.05,32.900000000000006,0)" xlink:href="#aO"/><use transform="matrix(0.05,0,0,0.05,41.900000000000006,0)" xlink:href="#aL"/><use transform="matrix(0.05,0,0,0.05,50.900000000000006,0)" xlink:href="#aK"/></g><path d="M55 0v-9l38-5v-207c-22 1-53 0-70 4l-5 37H7v-56h207v56h-12l-5-37-70-3v206l37 5v9H55" id="aZ"/><path d="M141-152c28 39 5 97-54 97-9 0-20-2-27-3L49-35c29 22 130-14 124 52-4 45-38 57-88 61C21 83-8 26 45-2 33-6 22-15 21-31l28-31c-19-9-28-26-28-51-2-51 53-65 100-52l38-20 7 8zM85 64c35 0 61-11 61-42 0-35-57-17-89-21-9 8-16 19-17 34 0 25 19 29 45 29zM52-113c1 26 7 46 35 44 28-1 34-16 35-44 0-26-6-43-34-43s-36 17-36 43" id="ba"/><g id="n"><use transform="matrix(0.05,0,0,0.05,0,0)" xlink:href="#aZ"/><use transform="matrix(0.05,0,0,0.05,10.3,0)" xlink:href="#aQ"/><use transform="matrix(0.05,0,0,0.05,16.25,0)" xlink:href="#aD"/><use transform="matrix(0.05,0,0,0.05,21.25,0)" xlink:href="#ba"/><use transform="matrix(0.05,0,0,0.05,30.25,0)" xlink:href="#ba"/><use transform="matrix(0.05,0,0,0.05,39.25,0)" xlink:href="#aE"/><use transform="matrix(0.05,0,0,0.05,47.2,0)" xlink:href="#aQ"/></g><path d="M103-236c-39-15-35 32-34 71h44v15H69v136l35 6v8H15v-8l25-6v-136H11v-9l29-7c-6-59 23-100 80-84v36c-15 2-12-14-17-22" id="bb"/><g id="o"><use transform="matrix(0.05,0,0,0.05,0,0)" xlink:href="#bb"/><use transform="matrix(0.05,0,0,0.05,5.95,0)" xlink:href="#aV"/><use transform="matrix(0.05,0,0,0.05,14.949999999999998,0)" xlink:href="#aF"/><use transform="matrix(0.05,0,0,0.05,23.95,0)" xlink:href="#aB"/><use transform="matrix(0.05,0,0,0.05,31.899999999999995,0)" xlink:href="#aG"/><use transform="matrix(0.05,0,0,0.05,36.9,0)" xlink:href="#aD"/><use transform="matrix(0.05,0,0,0.05,41.9,0)" xlink:href="#aJ"/><use transform="matrix(0.05,0,0,0.05,50.9,0)" xlink:href="#aF"/></g><path d="M199-173c-1 36-21 56-49 65l64 94 26 5v9h-57l-66-103H75v89l35 5v9H13v-9l28-5v-208l-31-4v-10c80 4 190-20 189 63zM75-119c50 2 89-1 89-51 0-49-39-52-89-50v101" id="bc"/><g id="p"><use transform="matrix(0.05,0,0,0.05,0,0)" xlink:href="#bc"/><use transform="matrix(0.05,0,0,0.05,12,0)" xlink:href="#aE"/><use transform="matrix(0.05,0,0,0.05,19.95,0)" xlink:href="#aK"/><use transform="matrix(0.05,0,0,0.05,27.899999999999995,0)" xlink:href="#aL"/></g><g id="q"><use transform="matrix(0.05,0,0,0.05,0,0)" xlink:href="#bb"/><use transform="matrix(0.05,0,0,0.05,5.95,0)" xlink:href="#aD"/><use transform="matrix(0.05,0,0,0.05,10.95,0)" xlink:href="#aC"/><use transform="matrix(0.05,0,0,0.05,15.949999999999998,0)" xlink:href="#aE"/></g><g id="r"><use transform="matrix(0.05,0,0,0.05,0,0)" xlink:href="#aB"/><use transform="matrix(0.05,0,0,0.05,7.95,0)" xlink:href="#aJ"/><use transform="matrix(0.05,0,0,0.05,16.95,0)" xlink:href="#aF"/><use transform="matrix(0.05,0,0,0.05,25.950000000000003,0)" xlink:href="#aG"/><use transform="matrix(0.05,0,0,0.05,30.950000000000003,0)" xlink:href="#aE"/><use transform="matrix(0.05,0,0,0.05,38.9,0)" xlink:href="#aF"/><use transform="matrix(0.05,0,0,0.05,47.9,0)" xlink:href="#aG"/></g><g id="s"><use transform="matrix(0.05,0,0,0.05,0,0)" xlink:href="#aJ"/><use transform="matrix(0.05,0,0,0.05,9,0)" xlink:href="#bb"/></g><g id="t"><use transform="matrix(0.05,0,0,0.05,0,0)" xlink:href="#aR"/><use transform="matrix(0.05,0,0,0.05,12,0)" xlink:href="#aS"/><use transform="matrix(0.05,0,0,0.05,22,0)" xlink:href="#aT"/></g><g id="u"><use transform="matrix(0.05,0,0,0.05,0,0)" xlink:href="#aW"/><use transform="matrix(0.05,0,0,0.05,10,0)" xlink:href="#aK"/><use transform="matrix(0.05,0,0,0.05,17.95,0)" xlink:href="#aM"/><use transform="matrix(0.05,0,0,0.05,24.95,0)" xlink:href="#aM"/></g><g id="v"><use transform="matrix(0.05,0,0,0.05,0,0)" xlink:href="#aI"/><use transform="matrix(0.05,0,0,0.05,9,0)" xlink:href="#aK"/><use transform="matrix(0.05,0,0,0.05,16.95,0)" xlink:href="#aQ"/><use transform="matrix(0.05,0,0,0.05,22.9,0)" xlink:href="#aM"/><use transform="matrix(0.05,0,0,0.05,29.899999999999995,0)" xlink:href="#aE"/><use transform="matrix(0.05,0,0,0.05,37.85,0)" xlink:href="#aL"/></g><g id="w"><use transform="matrix(0.05,0,0,0.05,0,0)" xlink:href="#aL"/><use transform="matrix(0.05,0,0,0.05,9,0)" xlink:href="#aK"/><use transform="matrix(0.05,0,0,0.05,16.95,0)" xlink:href="#aG"/><use transform="matrix(0.05,0,0,0.05,21.95,0)" xlink:href="#aK"/></g><path fill="#cd2264" d="M205 0l-28-72H64L36 0H1l101-248h38L239 0h-34zm-38-99l-47-123c-12 45-31 82-46 123h93" id="bd"/><path fill="#cd2264" d="M266 0h-40l-56-210L115 0H75L2-248h35L96-30l15-64 43-154h32l59 218 59-218h35" id="be"/><path fill="#cd2264" d="M185-189c-5-48-123-54-124 2 14 75 158 14 163 119 3 78-121 87-175 55-17-10-28-26-33-46l33-7c5 56 141 63 141-1 0-78-155-14-162-118-5-82 145-84 179-34 5 7 8 16 11 25" id="bf"/><g id="x"><use transform="matrix(0.05,0,0,0.05,0,0)" xlink:href="#bd"/><use transform="matrix(0.05,0,0,0.05,11.35,0)" xlink:href="#be"/><use transform="matrix(0.05,0,0,0.05,28.299999999999997,0)" xlink:href="#bf"/></g><path fill="#cd2264" d="M59-47c-2 24 18 29 38 22v24C64 9 27 4 27-40v-127H5v-23h24l9-43h21v43h35v23H59v120" id="bg"/><path fill="#cd2264" d="M100-194c63 0 86 42 84 106H49c0 40 14 67 53 68 26 1 43-12 49-29l28 8c-11 28-37 45-77 45C44 4 14-33 15-96c1-61 26-98 85-98zm52 81c6-60-76-77-97-28-3 7-6 17-6 28h103" id="bh"/><path fill="#cd2264" d="M115-194c55 1 70 41 70 98S169 2 115 4C84 4 66-9 55-30l1 105H24l-1-265h31l2 30c10-21 28-34 59-34zm-8 174c40 0 45-34 45-75s-6-73-45-74c-42 0-51 32-51 76 0 43 10 73 51 73" id="bi"/><g id="y"><use transform="matrix(0.05,0,0,0.05,0,0)" xlink:href="#bf"/><use transform="matrix(0.05,0,0,0.05,12,0)" xlink:href="#bg"/><use transform="matrix(0.05,0,0,0.05,17,0)" xlink:href="#bh"/><use transform="matrix(0.05,0,0,0.05,27,0)" xlink:href="#bi"/></g><path fill="#cd2264" d="M63-220v92h138v28H63V0H30v-248h175v28H63" id="bj"/><path fill="#cd2264" d="M84 4C-5 8 30-112 23-190h32v120c0 31 7 50 39 49 72-2 45-101 50-169h31l1 190h-30c-1-10 1-25-2-33-11 22-28 36-60 37" id="bk"/><path fill="#cd2264" d="M117-194c89-4 53 116 60 194h-32v-121c0-31-8-49-39-48C34-167 62-67 57 0H25l-1-190h30c1 10-1 24 2 32 11-22 29-35 61-36" id="bl"/><path fill="#cd2264" d="M96-169c-40 0-48 33-48 73s9 75 48 75c24 0 41-14 43-38l32 2c-6 37-31 61-74 61-59 0-76-41-82-99-10-93 101-131 147-64 4 7 5 14 7 22l-32 3c-4-21-16-35-41-35" id="bm"/><path fill="#cd2264" d="M24-231v-30h32v30H24zM24 0v-190h32V0H24" id="bn"/><path fill="#cd2264" d="M100-194c62-1 85 37 85 99 1 63-27 99-86 99S16-35 15-95c0-66 28-99 85-99zM99-20c44 1 53-31 53-75 0-43-8-75-51-75s-53 32-53 75 10 74 51 75" id="bo"/><g id="z"><use transform="matrix(0.05,0,0,0.05,0,0)" xlink:href="#bj"/><use transform="matrix(0.05,0,0,0.05,10.950000000000001,0)" xlink:href="#bk"/><use transform="matrix(0.05,0,0,0.05,20.950000000000003,0)" xlink:href="#bl"/><use transform="matrix(0.05,0,0,0.05,30.950000000000003,0)" xlink:href="#bm"/><use transform="matrix(0.05,0,0,0.05,39.95,0)" xlink:href="#bg"/><use transform="matrix(0.05,0,0,0.05,44.95,0)" xlink:href="#bn"/><use transform="matrix(0.05,0,0,0.05,48.900000000000006,0)" xlink:href="#bo"/><use transform="matrix(0.05,0,0,0.05,58.900000000000006,0)" xlink:href="#bl"/></g><path d="M42-37c43 0 23 74-4 81-7 4-14 8-24 11V42c17-5 29-14 31-30C42-2 20 1 21-18c0-12 9-19 21-19" id="bp"/><g id="A"><use transform="matrix(0.05,0,0,0.05,0,0)" xlink:href="#bc"/><use transform="matrix(0.05,0,0,0.05,12,0)" xlink:href="#aE"/><use transform="matrix(0.05,0,0,0.05,19.95,0)" xlink:href="#aB"/><use transform="matrix(0.05,0,0,0.05,27.899999999999995,0)" xlink:href="#aJ"/><use transform="matrix(0.05,0,0,0.05,36.9,0)" xlink:href="#aF"/><use transform="matrix(0.05,0,0,0.05,45.9,0)" xlink:href="#aB"/><use transform="matrix(0.05,0,0,0.05,53.85,0)" xlink:href="#aD"/><use transform="matrix(0.05,0,0,0.05,58.85,0)" xlink:href="#aC"/><use transform="matrix(0.05,0,0,0.05,63.85,0)" xlink:href="#aE"/><use transform="matrix(0.05,0,0,0.05,71.8,0)" xlink:href="#aM"/><use transform="matrix(0.05,0,0,0.05,78.8,0)" xlink:href="#bp"/></g><g id="B"><use transform="matrix(0.05,0,0,0.05,0,0)" xlink:href="#aM"/><use transform="matrix(0.05,0,0,0.05,7,0)" xlink:href="#aG"/><use transform="matrix(0.05,0,0,0.05,12,0)" xlink:href="#aJ"/><use transform="matrix(0.05,0,0,0.05,21,0)" xlink:href="#aQ"/><use transform="matrix(0.05,0,0,0.05,26.950000000000003,0)" xlink:href="#aE"/></g><g id="C"><use transform="matrix(0.05,0,0,0.05,0,0)" xlink:href="#aL"/><use transform="matrix(0.05,0,0,0.05,9,0)" xlink:href="#aD"/><use transform="matrix(0.05,0,0,0.05,14,0)" xlink:href="#aM"/><use transform="matrix(0.05,0,0,0.05,21,0)" xlink:href="#aB"/><use transform="matrix(0.05,0,0,0.05,28.950000000000003,0)" xlink:href="#aQ"/><use transform="matrix(0.05,0,0,0.05,34.9,0)" xlink:href="#aE"/><use transform="matrix(0.05,0,0,0.05,42.85,0)" xlink:href="#aI"/><use transform="matrix(0.05,0,0,0.05,51.85,0)" xlink:href="#aK"/><use transform="matrix(0.05,0,0,0.05,59.800000000000004,0)" xlink:href="#aF"/><use transform="matrix(0.05,0,0,0.05,68.80000000000001,0)" xlink:href="#aG"/></g><g id="D"><use transform="matrix(0.05,0,0,0.05,0,0)" xlink:href="#aG"/><use transform="matrix(0.05,0,0,0.05,5,0)" xlink:href="#aQ"/><use transform="matrix(0.05,0,0,0.05,10.95,0)" xlink:href="#aK"/><use transform="matrix(0.05,0,0,0.05,18.9,0)" xlink:href="#aF"/><use transform="matrix(0.05,0,0,0.05,27.899999999999995,0)" xlink:href="#aM"/><use transform="matrix(0.05,0,0,0.05,34.9,0)" xlink:href="#aK"/><use transform="matrix(0.05,0,0,0.05,42.85,0)" xlink:href="#aB"/><use transform="matrix(0.05,0,0,0.05,50.800000000000004,0)" xlink:href="#aG"/><use transform="matrix(0.05,0,0,0.05,55.800000000000004,0)" xlink:href="#aD"/><use transform="matrix(0.05,0,0,0.05,60.800000000000004,0)" xlink:href="#aJ"/><use transform="matrix(0.05,0,0,0.05,69.80000000000001,0)" xlink:href="#aF"/><use transform="matrix(0.05,0,0,0.05,78.80000000000001,0)" xlink:href="#aM"/></g><path d="M10-9l31-5v-208l-31-4v-10h177v57h-11l-6-38c-28-4-63-3-95-3v92h63l6-28h11v73h-11l-6-29H75v96l105-3 10-43h12l-3 62H10v-9" id="bq"/><path d="M156-12c7 3 23-1 20 12h-75v-8l22-4-38-58-45 58 23 4v8H3v-8l19-3 55-71-48-71c-7-3-23 1-20-12h75v8l-22 4 32 48 37-48-23-4v-8h59v8l-19 3-46 60" id="br"/><g id="E"><use transform="matrix(0.05,0,0,0.05,0,0)" xlink:href="#bq"/><use transform="matrix(0.05,0,0,0.05,10.950000000000001,0)" xlink:href="#br"/><use transform="matrix(0.05,0,0,0.05,19.950000000000003,0)" xlink:href="#aI"/><use transform="matrix(0.05,0,0,0.05,28.950000000000003,0)" xlink:href="#aE"/><use transform="matrix(0.05,0,0,0.05,36.900000000000006,0)" xlink:href="#aF"/><use transform="matrix(0.05,0,0,0.05,45.900000000000006,0)" xlink:href="#aM"/><use transform="matrix(0.05,0,0,0.05,52.900000000000006,0)" xlink:href="#aE"/></g><path d="M152 0h-7L59-203v189l32 5v9H10v-9l31-5v-208l-31-4v-10h72l76 180 84-180h68v10l-31 4v208l31 5v9h-96v-9l32-5v-189" id="bs"/><g id="F"><use transform="matrix(0.05,0,0,0.05,0,0)" xlink:href="#bs"/><use transform="matrix(0.05,0,0,0.05,16,0)" xlink:href="#aK"/><use transform="matrix(0.05,0,0,0.05,23.95,0)" xlink:href="#aF"/><use transform="matrix(0.05,0,0,0.05,32.95,0)" xlink:href="#aK"/><use transform="matrix(0.05,0,0,0.05,40.900000000000006,0)" xlink:href="#ba"/><use transform="matrix(0.05,0,0,0.05,49.900000000000006,0)" xlink:href="#aE"/><use transform="matrix(0.05,0,0,0.05,57.85,0)" xlink:href="#aQ"/></g><g id="G"><use transform="matrix(0.05,0,0,0.05,0,0)" xlink:href="#aH"/><use transform="matrix(0.05,0,0,0.05,12.950000000000001,0)" xlink:href="#aI"/><use transform="matrix(0.05,0,0,0.05,21.950000000000003,0)" xlink:href="#aL"/><use transform="matrix(0.05,0,0,0.05,30.950000000000003,0)" xlink:href="#aK"/><use transform="matrix(0.05,0,0,0.05,38.900000000000006,0)" xlink:href="#aG"/><use transform="matrix(0.05,0,0,0.05,43.900000000000006,0)" xlink:href="#aE"/></g><path d="M126-119c3-38-42-31-69-25v132l23 4v8H7v-8l21-4v-226l-24-4v-8h53l-1 98c31-22 99-31 99 31v109c7 3 23-1 20 12h-71v-8l22-4v-107" id="bt"/><g id="H"><use transform="matrix(0.05,0,0,0.05,0,0)" xlink:href="#aG"/><use transform="matrix(0.05,0,0,0.05,5,0)" xlink:href="#bt"/><use transform="matrix(0.05,0,0,0.05,14,0)" xlink:href="#aE"/></g><g id="I"><use transform="matrix(0.05,0,0,0.05,0,0)" xlink:href="#aL"/><use transform="matrix(0.05,0,0,0.05,9,0)" xlink:href="#aK"/><use transform="matrix(0.05,0,0,0.05,16.95,0)" xlink:href="#aG"/><use transform="matrix(0.05,0,0,0.05,21.95,0)" xlink:href="#aK"/><use transform="matrix(0.05,0,0,0.05,29.899999999999995,0)" xlink:href="#aO"/><use transform="matrix(0.05,0,0,0.05,38.9,0)" xlink:href="#aK"/><use transform="matrix(0.05,0,0,0.05,46.85,0)" xlink:href="#aM"/><use transform="matrix(0.05,0,0,0.05,53.85,0)" xlink:href="#aE"/></g><g id="J"><use transform="matrix(0.05,0,0,0.05,0,0)" xlink:href="#bb"/><use transform="matrix(0.05,0,0,0.05,5.95,0)" xlink:href="#aD"/><use transform="matrix(0.05,0,0,0.05,10.95,0)" xlink:href="#aC"/><use transform="matrix(0.05,0,0,0.05,15.949999999999998,0)" xlink:href="#aE"/></g><path d="M75-17c87 13 134-18 134-103 0-78-51-106-134-100v203zm171-102C246 5 139 7 10 0v-9l31-5v-208l-31-4v-10h107c82 0 129 35 129 117" id="bu"/><g id="K"><use transform="matrix(0.05,0,0,0.05,0,0)" xlink:href="#bu"/><use transform="matrix(0.05,0,0,0.05,12.950000000000001,0)" xlink:href="#aQ"/><use transform="matrix(0.05,0,0,0.05,18.900000000000002,0)" xlink:href="#aJ"/><use transform="matrix(0.05,0,0,0.05,27.900000000000002,0)" xlink:href="#aI"/><use transform="matrix(0.05,0,0,0.05,36.900000000000006,0)" xlink:href="#aO"/><use transform="matrix(0.05,0,0,0.05,45.900000000000006,0)" xlink:href="#aJ"/><use transform="matrix(0.05,0,0,0.05,54.900000000000006,0)" xlink:href="#br"/></g><g id="L"><use transform="matrix(0.05,0,0,0.05,0,0)" xlink:href="#aT"/><use transform="matrix(0.05,0,0,0.05,10.950000000000001,0)" xlink:href="#aE"/><use transform="matrix(0.05,0,0,0.05,18.900000000000002,0)" xlink:href="#aQ"/><use transform="matrix(0.05,0,0,0.05,24.85,0)" xlink:href="#aD"/><use transform="matrix(0.05,0,0,0.05,29.85,0)" xlink:href="#bb"/><use transform="matrix(0.05,0,0,0.05,35.800000000000004,0)" xlink:href="#aD"/><use transform="matrix(0.05,0,0,0.05,40.800000000000004,0)" xlink:href="#aB"/><use transform="matrix(0.05,0,0,0.05,48.75000000000001,0)" xlink:href="#aK"/><use transform="matrix(0.05,0,0,0.05,56.70000000000002,0)" xlink:href="#aG"/><use transform="matrix(0.05,0,0,0.05,61.70000000000002,0)" xlink:href="#aD"/><use transform="matrix(0.05,0,0,0.05,66.70000000000002,0)" xlink:href="#aJ"/><use transform="matrix(0.05,0,0,0.05,75.70000000000002,0)" xlink:href="#aF"/></g><g id="M"><use transform="matrix(0.05,0,0,0.05,0,0)" xlink:href="#aS"/><use transform="matrix(0.05,0,0,0.05,10,0)" xlink:href="#aE"/><use transform="matrix(0.05,0,0,0.05,17.95,0)" xlink:href="#aF"/><use transform="matrix(0.05,0,0,0.05,26.950000000000003,0)" xlink:href="#aL"/></g><path d="M164-154L98 4H85L17-153c-7-3-20 0-17-12h77v8l-26 4L99-38l46-115-26-4v-8h61v8" id="bv"/><g id="N"><use transform="matrix(0.05,0,0,0.05,0,0)" xlink:href="#bv"/><use transform="matrix(0.05,0,0,0.05,9,0)" xlink:href="#aE"/><use transform="matrix(0.05,0,0,0.05,16.95,0)" xlink:href="#aQ"/><use transform="matrix(0.05,0,0,0.05,22.9,0)" xlink:href="#aD"/><use transform="matrix(0.05,0,0,0.05,27.899999999999995,0)" xlink:href="#bb"/><use transform="matrix(0.05,0,0,0.05,33.85,0)" xlink:href="#aD"/><use transform="matrix(0.05,0,0,0.05,38.85,0)" xlink:href="#aB"/><use transform="matrix(0.05,0,0,0.05,46.800000000000004,0)" xlink:href="#aK"/><use transform="matrix(0.05,0,0,0.05,54.75,0)" xlink:href="#aG"/><use transform="matrix(0.05,0,0,0.05,59.75,0)" xlink:href="#aD"/><use transform="matrix(0.05,0,0,0.05,64.75,0)" xlink:href="#aJ"/><use transform="matrix(0.05,0,0,0.05,73.75,0)" xlink:href="#aF"/></g><path d="M13-82c-2-68 46-101 114-84 8-3 15-8 28-7V64l18 4v9h-70v-9l23-4c1-25-2-53 2-75-11 8-27 15-47 15-49-1-66-35-68-86zm113-70c-53-13-86 12-81 70-6 54 34 80 81 61v-131" id="bw"/><g id="O"><use transform="matrix(0.05,0,0,0.05,0,0)" xlink:href="#aQ"/><use transform="matrix(0.05,0,0,0.05,5.95,0)" xlink:href="#aE"/><use transform="matrix(0.05,0,0,0.05,13.9,0)" xlink:href="#bw"/><use transform="matrix(0.05,0,0,0.05,22.9,0)" xlink:href="#aV"/><use transform="matrix(0.05,0,0,0.05,31.899999999999995,0)" xlink:href="#aE"/><use transform="matrix(0.05,0,0,0.05,39.85,0)" xlink:href="#aM"/><use transform="matrix(0.05,0,0,0.05,46.85,0)" xlink:href="#aG"/></g><g id="P"><use transform="matrix(0.05,0,0,0.05,0,0)" xlink:href="#aR"/><use transform="matrix(0.05,0,0,0.05,12,0)" xlink:href="#bt"/><use transform="matrix(0.05,0,0,0.05,21,0)" xlink:href="#aK"/><use transform="matrix(0.05,0,0,0.05,28.950000000000003,0)" xlink:href="#aF"/><use transform="matrix(0.05,0,0,0.05,37.95,0)" xlink:href="#ba"/><use transform="matrix(0.05,0,0,0.05,46.95,0)" xlink:href="#aE"/></g><g id="Q"><use transform="matrix(0.05,0,0,0.05,0,0)" xlink:href="#bq"/><use transform="matrix(0.05,0,0,0.05,10.950000000000001,0)" xlink:href="#bv"/><use transform="matrix(0.05,0,0,0.05,19.950000000000003,0)" xlink:href="#aE"/><use transform="matrix(0.05,0,0,0.05,27.900000000000002,0)" xlink:href="#aF"/><use transform="matrix(0.05,0,0,0.05,36.900000000000006,0)" xlink:href="#aG"/></g><path d="M81-9v9H4v-9l26-5 81-224h33l83 224 30 5v9h-99v-9l31-5-23-68H73L49-14zm38-203L78-98h82" id="bx"/><g id="R"><use transform="matrix(0.05,0,0,0.05,0,0)" xlink:href="#bx"/><use transform="matrix(0.05,0,0,0.05,12.950000000000001,0)" xlink:href="#aB"/><use transform="matrix(0.05,0,0,0.05,20.900000000000002,0)" xlink:href="#aB"/><use transform="matrix(0.05,0,0,0.05,28.85,0)" xlink:href="#aP"/><use transform="matrix(0.05,0,0,0.05,37.85,0)" xlink:href="#aF"/><use transform="matrix(0.05,0,0,0.05,46.85,0)" xlink:href="#aJ"/><use transform="matrix(0.05,0,0,0.05,55.85,0)" xlink:href="#aN"/><use transform="matrix(0.05,0,0,0.05,68.8,0)" xlink:href="#aC"/><use transform="matrix(0.05,0,0,0.05,73.8,0)" xlink:href="#aE"/><use transform="matrix(0.05,0,0,0.05,81.75,0)" xlink:href="#aL"/><use transform="matrix(0.05,0,0,0.05,90.75,0)" xlink:href="#ba"/><use transform="matrix(0.05,0,0,0.05,99.75,0)" xlink:href="#aE"/></g><g id="S"><use transform="matrix(0.05,0,0,0.05,0,0)" xlink:href="#aB"/><use transform="matrix(0.05,0,0,0.05,7.95,0)" xlink:href="#bt"/><use transform="matrix(0.05,0,0,0.05,16.95,0)" xlink:href="#aK"/><use transform="matrix(0.05,0,0,0.05,24.9,0)" xlink:href="#aF"/><use transform="matrix(0.05,0,0,0.05,33.9,0)" xlink:href="#ba"/><use transform="matrix(0.05,0,0,0.05,42.9,0)" xlink:href="#aE"/><use transform="matrix(0.05,0,0,0.05,50.85,0)" xlink:href="#aL"/></g><g id="T"><use transform="matrix(0.05,0,0,0.05,0,0)" xlink:href="#aY"/><use transform="matrix(0.05,0,0,0.05,14,0)" xlink:href="#aE"/><use transform="matrix(0.05,0,0,0.05,21.95,0)" xlink:href="#aG"/><use transform="matrix(0.05,0,0,0.05,26.950000000000003,0)" xlink:href="#aK"/><use transform="matrix(0.05,0,0,0.05,34.9,0)" xlink:href="#aL"/><use transform="matrix(0.05,0,0,0.05,43.9,0)" xlink:href="#aK"/><use transform="matrix(0.05,0,0,0.05,51.85,0)" xlink:href="#aG"/><use transform="matrix(0.05,0,0,0.05,56.85,0)" xlink:href="#aK"/></g><g id="U"><use transform="matrix(0.05,0,0,0.05,0,0)" xlink:href="#bc"/><use transform="matrix(0.05,0,0,0.05,12,0)" xlink:href="#aE"/><use transform="matrix(0.05,0,0,0.05,19.95,0)" xlink:href="#aG"/><use transform="matrix(0.05,0,0,0.05,24.95,0)" xlink:href="#aQ"/><use transform="matrix(0.05,0,0,0.05,30.899999999999995,0)" xlink:href="#aD"/><use transform="matrix(0.05,0,0,0.05,35.9,0)" xlink:href="#aE"/><use transform="matrix(0.05,0,0,0.05,43.85,0)" xlink:href="#bv"/><use transform="matrix(0.05,0,0,0.05,52.85,0)" xlink:href="#aE"/></g><g id="V"><use transform="matrix(0.05,0,0,0.05,0,0)" xlink:href="#aZ"/><use transform="matrix(0.05,0,0,0.05,10.3,0)" xlink:href="#aQ"/><use transform="matrix(0.05,0,0,0.05,16.25,0)" xlink:href="#aK"/><use transform="matrix(0.05,0,0,0.05,24.2,0)" xlink:href="#aF"/><use transform="matrix(0.05,0,0,0.05,33.2,0)" xlink:href="#aM"/><use transform="matrix(0.05,0,0,0.05,40.2,0)" xlink:href="#bb"/><use transform="matrix(0.05,0,0,0.05,46.150000000000006,0)" xlink:href="#aE"/><use transform="matrix(0.05,0,0,0.05,54.1,0)" xlink:href="#aQ"/></g><g id="W"><use transform="matrix(0.05,0,0,0.05,0,0)" xlink:href="#aB"/><use transform="matrix(0.05,0,0,0.05,7.95,0)" xlink:href="#aJ"/><use transform="matrix(0.05,0,0,0.05,16.95,0)" xlink:href="#aF"/><use transform="matrix(0.05,0,0,0.05,25.950000000000003,0)" xlink:href="#aG"/><use transform="matrix(0.05,0,0,0.05,30.950000000000003,0)" xlink:href="#aE"/><use transform="matrix(0.05,0,0,0.05,38.9,0)" xlink:href="#aF"/><use transform="matrix(0.05,0,0,0.05,47.9,0)" xlink:href="#aG"/></g><g id="X"><use transform="matrix(0.05,0,0,0.05,0,0)" xlink:href="#aB"/><use transform="matrix(0.05,0,0,0.05,7.95,0)" xlink:href="#bt"/><use transform="matrix(0.05,0,0,0.05,16.95,0)" xlink:href="#aK"/><use transform="matrix(0.05,0,0,0.05,24.9,0)" xlink:href="#aF"/><use transform="matrix(0.05,0,0,0.05,33.9,0)" xlink:href="#ba"/><use transform="matrix(0.05,0,0,0.05,42.9,0)" xlink:href="#aE"/></g><g id="Y"><use transform="matrix(0.05,0,0,0.05,0,0)" xlink:href="#aE"/><use transform="matrix(0.05,0,0,0.05,7.95,0)" xlink:href="#bv"/><use transform="matrix(0.05,0,0,0.05,16.95,0)" xlink:href="#aE"/><use transform="matrix(0.05,0,0,0.05,24.9,0)" xlink:href="#aF"/><use transform="matrix(0.05,0,0,0.05,33.9,0)" xlink:href="#aG"/></g><g id="Z"><use transform="matrix(0.05,0,0,0.05,0,0)" xlink:href="#bv"/><use transform="matrix(0.05,0,0,0.05,9,0)" xlink:href="#aD"/><use transform="matrix(0.05,0,0,0.05,14,0)" xlink:href="#aK"/></g><g id="aa"><use transform="matrix(0.05,0,0,0.05,0,0)" xlink:href="#aN"/><use transform="matrix(0.05,0,0,0.05,12.950000000000001,0)" xlink:href="#aE"/><use transform="matrix(0.05,0,0,0.05,20.900000000000002,0)" xlink:href="#aO"/><use transform="matrix(0.05,0,0,0.05,29.900000000000002,0)" xlink:href="#bt"/><use transform="matrix(0.05,0,0,0.05,38.900000000000006,0)" xlink:href="#aJ"/><use transform="matrix(0.05,0,0,0.05,47.900000000000006,0)" xlink:href="#aJ"/><use transform="matrix(0.05,0,0,0.05,56.900000000000006,0)" xlink:href="#aP"/></g><g id="ab"><use transform="matrix(0.05,0,0,0.05,0,0)" xlink:href="#bc"/><use transform="matrix(0.05,0,0,0.05,12,0)" xlink:href="#aE"/><use transform="matrix(0.05,0,0,0.05,19.95,0)" xlink:href="#aG"/><use transform="matrix(0.05,0,0,0.05,24.95,0)" xlink:href="#aQ"/><use transform="matrix(0.05,0,0,0.05,30.899999999999995,0)" xlink:href="#aE"/><use transform="matrix(0.05,0,0,0.05,38.85,0)" xlink:href="#aD"/><use transform="matrix(0.05,0,0,0.05,43.85,0)" xlink:href="#bv"/><use transform="matrix(0.05,0,0,0.05,52.85,0)" xlink:href="#aE"/></g><g id="ac"><use transform="matrix(0.05,0,0,0.05,0,0)" xlink:href="#aE"/><use transform="matrix(0.05,0,0,0.05,7.95,0)" xlink:href="#aF"/><use transform="matrix(0.05,0,0,0.05,16.95,0)" xlink:href="#aG"/><use transform="matrix(0.05,0,0,0.05,21.95,0)" xlink:href="#aQ"/><use transform="matrix(0.05,0,0,0.05,27.899999999999995,0)" xlink:href="#aD"/><use transform="matrix(0.05,0,0,0.05,32.9,0)" xlink:href="#aE"/><use transform="matrix(0.05,0,0,0.05,40.85,0)" xlink:href="#aM"/></g><g id="ad"><use transform="matrix(0.05,0,0,0.05,0,0)" xlink:href="#aL"/><use transform="matrix(0.05,0,0,0.05,9,0)" xlink:href="#aK"/><use transform="matrix(0.05,0,0,0.05,16.95,0)" xlink:href="#aG"/><use transform="matrix(0.05,0,0,0.05,21.95,0)" xlink:href="#aK"/><use transform="matrix(0.05,0,0,0.05,29.899999999999995,0)" xlink:href="#aO"/><use transform="matrix(0.05,0,0,0.05,38.9,0)" xlink:href="#aK"/><use transform="matrix(0.05,0,0,0.05,46.85,0)" xlink:href="#aM"/><use transform="matrix(0.05,0,0,0.05,53.85,0)" xlink:href="#aE"/></g><g id="ae"><use transform="matrix(0.05,0,0,0.05,0,0)" xlink:href="#aT"/><use transform="matrix(0.05,0,0,0.05,11.850000000000001,0)" xlink:href="#aD"/><use transform="matrix(0.05,0,0,0.05,16.85,0)" xlink:href="#aE"/><use transform="matrix(0.05,0,0,0.05,24.8,0)" xlink:href="#aN"/></g><g id="af"><use transform="matrix(0.05,0,0,0.05,0,0)" xlink:href="#aQ"/><use transform="matrix(0.05,0,0,0.05,5.95,0)" xlink:href="#aE"/><use transform="matrix(0.05,0,0,0.05,13.9,0)" xlink:href="#aB"/><use transform="matrix(0.05,0,0,0.05,21.85,0)" xlink:href="#aJ"/><use transform="matrix(0.05,0,0,0.05,30.85,0)" xlink:href="#aF"/><use transform="matrix(0.05,0,0,0.05,39.85,0)" xlink:href="#aB"/><use transform="matrix(0.05,0,0,0.05,47.800000000000004,0)" xlink:href="#aD"/><use transform="matrix(0.05,0,0,0.05,52.800000000000004,0)" xlink:href="#aC"/><use transform="matrix(0.05,0,0,0.05,57.800000000000004,0)" xlink:href="#aD"/><use transform="matrix(0.05,0,0,0.05,62.800000000000004,0)" xlink:href="#aK"/><use transform="matrix(0.05,0,0,0.05,70.75,0)" xlink:href="#aG"/><use transform="matrix(0.05,0,0,0.05,75.75,0)" xlink:href="#aD"/><use transform="matrix(0.05,0,0,0.05,80.75,0)" xlink:href="#aJ"/><use transform="matrix(0.05,0,0,0.05,89.75,0)" xlink:href="#aF"/></g><g id="ag"><use transform="matrix(0.05,0,0,0.05,0,0)" xlink:href="#aQ"/><use transform="matrix(0.05,0,0,0.05,5.95,0)" xlink:href="#aE"/><use transform="matrix(0.05,0,0,0.05,13.9,0)" xlink:href="#aM"/><use transform="matrix(0.05,0,0,0.05,20.9,0)" xlink:href="#aV"/><use transform="matrix(0.05,0,0,0.05,29.899999999999995,0)" xlink:href="#aC"/><use transform="matrix(0.05,0,0,0.05,34.9,0)" xlink:href="#aG"/></g><g id="ah"><use transform="matrix(0.05,0,0,0.05,0,0)" xlink:href="#aL"/><use transform="matrix(0.05,0,0,0.05,9,0)" xlink:href="#aD"/><use transform="matrix(0.05,0,0,0.05,14,0)" xlink:href="#aM"/><use transform="matrix(0.05,0,0,0.05,21,0)" xlink:href="#aB"/><use transform="matrix(0.05,0,0,0.05,28.950000000000003,0)" xlink:href="#aQ"/><use transform="matrix(0.05,0,0,0.05,34.9,0)" xlink:href="#aE"/><use transform="matrix(0.05,0,0,0.05,42.85,0)" xlink:href="#aI"/><use transform="matrix(0.05,0,0,0.05,51.85,0)" xlink:href="#aK"/><use transform="matrix(0.05,0,0,0.05,59.800000000000004,0)" xlink:href="#aF"/><use transform="matrix(0.05,0,0,0.05,68.80000000000001,0)" xlink:href="#aG"/></g><g id="ai"><use transform="matrix(0.05,0,0,0.05,0,0)" xlink:href="#aG"/><use transform="matrix(0.05,0,0,0.05,5,0)" xlink:href="#aJ"/></g><g id="aj"><use transform="matrix(0.05,0,0,0.05,0,0)" xlink:href="#bu"/><use transform="matrix(0.05,0,0,0.05,12.950000000000001,0)" xlink:href="#aD"/><use transform="matrix(0.05,0,0,0.05,17.950000000000003,0)" xlink:href="#aM"/><use transform="matrix(0.05,0,0,0.05,24.950000000000003,0)" xlink:href="#aB"/><use transform="matrix(0.05,0,0,0.05,32.900000000000006,0)" xlink:href="#aQ"/><use transform="matrix(0.05,0,0,0.05,38.85000000000001,0)" xlink:href="#aE"/><use transform="matrix(0.05,0,0,0.05,46.80000000000001,0)" xlink:href="#aI"/><use transform="matrix(0.05,0,0,0.05,55.80000000000001,0)" xlink:href="#aK"/><use transform="matrix(0.05,0,0,0.05,63.750000000000014,0)" xlink:href="#aF"/><use transform="matrix(0.05,0,0,0.05,72.75000000000001,0)" xlink:href="#aG"/></g><g id="ak"><use transform="matrix(0.05,0,0,0.05,0,0)" xlink:href="#bq"/><use transform="matrix(0.05,0,0,0.05,10.950000000000001,0)" xlink:href="#br"/><use transform="matrix(0.05,0,0,0.05,19.950000000000003,0)" xlink:href="#aI"/><use transform="matrix(0.05,0,0,0.05,28.950000000000003,0)" xlink:href="#aE"/><use transform="matrix(0.05,0,0,0.05,36.900000000000006,0)" xlink:href="#aF"/><use transform="matrix(0.05,0,0,0.05,45.900000000000006,0)" xlink:href="#aM"/><use transform="matrix(0.05,0,0,0.05,52.900000000000006,0)" xlink:href="#aE"/></g><g id="am"><use transform="matrix(0.05,0,0,0.05,0,0)" xlink:href="#bc"/><use transform="matrix(0.05,0,0,0.05,12,0)" xlink:href="#aE"/><use transform="matrix(0.05,0,0,0.05,19.95,0)" xlink:href="#aG"/><use transform="matrix(0.05,0,0,0.05,24.95,0)" xlink:href="#aQ"/><use transform="matrix(0.05,0,0,0.05,30.899999999999995,0)" xlink:href="#aD"/><use transform="matrix(0.05,0,0,0.05,35.9,0)" xlink:href="#aE"/><use transform="matrix(0.05,0,0,0.05,43.85,0)" xlink:href="#bv"/><use transform="matrix(0.05,0,0,0.05,52.85,0)" xlink:href="#aE"/><use transform="matrix(0.05,0,0,0.05,60.800000000000004,0)" xlink:href="#aQ"/></g><path d="M319-222L242 5h-10l-61-162L108 5h-9L21-222l-21-4v-10h90v10l-34 4 56 166 63-163h8l61 163 54-166-37-4v-10h78v10" id="by"/><g id="an"><use transform="matrix(0.05,0,0,0.05,0,0)" xlink:href="#bx"/><use transform="matrix(0.05,0,0,0.05,11.5,0)" xlink:href="#by"/><use transform="matrix(0.05,0,0,0.05,28.450000000000003,0)" xlink:href="#aS"/></g><g id="ao"><use transform="matrix(0.05,0,0,0.05,0,0)" xlink:href="#aS"/><use transform="matrix(0.05,0,0,0.05,10,0)" xlink:href="#aE"/><use transform="matrix(0.05,0,0,0.05,17.95,0)" xlink:href="#aQ"/><use transform="matrix(0.05,0,0,0.05,23.9,0)" xlink:href="#bv"/><use transform="matrix(0.05,0,0,0.05,32.9,0)" xlink:href="#aE"/><use transform="matrix(0.05,0,0,0.05,40.85,0)" xlink:href="#aQ"/><use transform="matrix(0.05,0,0,0.05,46.800000000000004,0)" xlink:href="#aC"/><use transform="matrix(0.05,0,0,0.05,51.800000000000004,0)" xlink:href="#aE"/><use transform="matrix(0.05,0,0,0.05,59.75,0)" xlink:href="#aM"/><use transform="matrix(0.05,0,0,0.05,66.75,0)" xlink:href="#aM"/></g><g id="ap"><use transform="matrix(0.05,0,0,0.05,0,0)" xlink:href="#bx"/><use transform="matrix(0.05,0,0,0.05,12.950000000000001,0)" xlink:href="#aV"/><use transform="matrix(0.05,0,0,0.05,21.950000000000003,0)" xlink:href="#aQ"/><use transform="matrix(0.05,0,0,0.05,27.900000000000002,0)" xlink:href="#aJ"/><use transform="matrix(0.05,0,0,0.05,36.900000000000006,0)" xlink:href="#aQ"/><use transform="matrix(0.05,0,0,0.05,42.85000000000001,0)" xlink:href="#aK"/></g><g id="aq"><use transform="matrix(0.05,0,0,0.05,0,0)" xlink:href="#bq"/><use transform="matrix(0.05,0,0,0.05,10.950000000000001,0)" xlink:href="#br"/><use transform="matrix(0.05,0,0,0.05,19.950000000000003,0)" xlink:href="#aI"/><use transform="matrix(0.05,0,0,0.05,28.950000000000003,0)" xlink:href="#aM"/><use transform="matrix(0.05,0,0,0.05,35.95,0)" xlink:href="#aE"/><use transform="matrix(0.05,0,0,0.05,43.900000000000006,0)" xlink:href="#aF"/><use transform="matrix(0.05,0,0,0.05,52.900000000000006,0)" xlink:href="#aM"/><use transform="matrix(0.05,0,0,0.05,59.900000000000006,0)" xlink:href="#aE"/></g><g id="ar"><use transform="matrix(0.05,0,0,0.05,0,0)" xlink:href="#bc"/><use transform="matrix(0.05,0,0,0.05,12,0)" xlink:href="#aE"/><use transform="matrix(0.05,0,0,0.05,19.95,0)" xlink:href="#aB"/><use transform="matrix(0.05,0,0,0.05,27.899999999999995,0)" xlink:href="#aJ"/><use transform="matrix(0.05,0,0,0.05,36.9,0)" xlink:href="#aF"/><use transform="matrix(0.05,0,0,0.05,45.9,0)" xlink:href="#aB"/><use transform="matrix(0.05,0,0,0.05,53.85,0)" xlink:href="#aD"/><use transform="matrix(0.05,0,0,0.05,58.85,0)" xlink:href="#aC"/><use transform="matrix(0.05,0,0,0.05,63.85,0)" xlink:href="#aE"/><use transform="matrix(0.05,0,0,0.05,71.8,0)" xlink:href="#aQ"/></g><path d="M92-20c74 11 92-29 92-98 0-66-23-103-92-98v196zm150-99C242 9 136 6 6 0v-13l31-5v-200l-31-5v-13h112c81 0 124 34 124 117" id="bz"/><path d="M132-132c-21 0-37 9-50 16v100l26 4V0H10v-12l21-4v-133l-21-5v-11h69l2 34c17-18 35-41 71-40v61c-17 3-14-14-20-22" id="bA"/><path d="M90-170c54-1 76 32 76 87 1 56-23 87-77 87-53 0-75-32-75-87s23-86 76-87zM89-14c28-2 26-38 26-69s3-69-26-69c-27 0-24 39-24 69s-3 66 24 69" id="bB"/><path d="M186-86c2 69-46 103-114 85l1 62 25 4v12H5V65l18-4v-210l-18-5v-11h67v8c12-8 26-13 46-13 49 2 67 30 68 84zm-83 71c28 0 31-33 31-69 0-34-2-66-30-66-12 0-23 3-31 7v124c9 2 20 4 30 4" id="bC"/><path d="M72-18c49 15 64-22 62-69-1-34-4-62-34-63-10-1-23 2-28 6v126zm33 22C77 4 48-3 21-8v-226l-16-4v-12h67c-1 31 2 66-2 94 11-8 28-14 47-14 51 0 70 31 69 83-1 55-26 91-81 91" id="bD"/><path d="M5-154v-11h89v11l-19 5 24 37 32-37-16-5v-11h56v11l-15 4-46 54 52 81 16 4V0H90v-11l18-4-29-45-38 45 17 4V0H1v-11l15-3 53-62-48-73" id="bE"/><g id="as"><use transform="matrix(0.06234567901234567,0,0,0.06234567901234567,0,0)" xlink:href="#bz"/><use transform="matrix(0.06234567901234567,0,0,0.06234567901234567,16.147530864197527,0)" xlink:href="#bA"/><use transform="matrix(0.06234567901234567,0,0,0.06234567901234567,25.62407407407407,0)" xlink:href="#bB"/><use transform="matrix(0.06234567901234567,0,0,0.06234567901234567,36.84629629629629,0)" xlink:href="#bC"/><use transform="matrix(0.06234567901234567,0,0,0.06234567901234567,49.31543209876542,0)" xlink:href="#bD"/><use transform="matrix(0.06234567901234567,0,0,0.06234567901234567,61.78456790123455,0)" xlink:href="#bB"/><use transform="matrix(0.06234567901234567,0,0,0.06234567901234567,73.00679012345677,0)" xlink:href="#bE"/></g><g id="at"><use transform="matrix(0.05,0,0,0.05,0,0)" xlink:href="#bu"/><use transform="matrix(0.05,0,0,0.05,12.950000000000001,0)" xlink:href="#aK"/><use transform="matrix(0.05,0,0,0.05,20.900000000000002,0)" xlink:href="#aG"/><use transform="matrix(0.05,0,0,0.05,25.900000000000002,0)" xlink:href="#aK"/><use transform="matrix(0.05,0,0,0.05,33.85,0)" xlink:href="#aO"/><use transform="matrix(0.05,0,0,0.05,42.85,0)" xlink:href="#aK"/><use transform="matrix(0.05,0,0,0.05,50.800000000000004,0)" xlink:href="#aM"/><use transform="matrix(0.05,0,0,0.05,57.800000000000004,0)" xlink:href="#aE"/></g><path d="M75-106v92l39 5v9H13v-9l28-5v-208l-31-4v-10h177v57h-11l-6-38c-28-4-63-3-95-3v98h69l5-28h11v73h-11l-5-29H75" id="bF"/><g id="au"><use transform="matrix(0.05,0,0,0.05,0,0)" xlink:href="#bF"/><use transform="matrix(0.05,0,0,0.05,10,0)" xlink:href="#aD"/><use transform="matrix(0.05,0,0,0.05,15,0)" xlink:href="#aC"/><use transform="matrix(0.05,0,0,0.05,20,0)" xlink:href="#aE"/></g><g id="av"><use transform="matrix(0.05,0,0,0.05,0,0)" xlink:href="#bu"/><use transform="matrix(0.05,0,0,0.05,12.950000000000001,0)" xlink:href="#aD"/><use transform="matrix(0.05,0,0,0.05,17.950000000000003,0)" xlink:href="#aM"/><use transform="matrix(0.05,0,0,0.05,24.950000000000003,0)" xlink:href="#aB"/><use transform="matrix(0.05,0,0,0.05,32.900000000000006,0)" xlink:href="#aQ"/><use transform="matrix(0.05,0,0,0.05,38.85000000000001,0)" xlink:href="#aE"/><use transform="matrix(0.05,0,0,0.05,46.80000000000001,0)" xlink:href="#aI"/><use transform="matrix(0.05,0,0,0.05,55.80000000000001,0)" xlink:href="#aG"/></g><g id="aw"><use transform="matrix(0.05,0,0,0.05,0,0)" xlink:href="#bq"/><use transform="matrix(0.05,0,0,0.05,10.950000000000001,0)" xlink:href="#br"/><use transform="matrix(0.05,0,0,0.05,19.950000000000003,0)" xlink:href="#aI"/><use transform="matrix(0.05,0,0,0.05,28.950000000000003,0)" xlink:href="#aM"/><use transform="matrix(0.05,0,0,0.05,35.95,0)" xlink:href="#aE"/><use transform="matrix(0.05,0,0,0.05,43.900000000000006,0)" xlink:href="#aF"/><use transform="matrix(0.05,0,0,0.05,52.900000000000006,0)" xlink:href="#aM"/><use transform="matrix(0.05,0,0,0.05,59.900000000000006,0)" xlink:href="#aE"/></g><g id="ax"><use transform="matrix(0.05,0,0,0.05,0,0)" xlink:href="#bc"/><use transform="matrix(0.05,0,0,0.05,12,0)" xlink:href="#aE"/><use transform="matrix(0.05,0,0,0.05,19.95,0)" xlink:href="#aM"/><use transform="matrix(0.05,0,0,0.05,26.950000000000003,0)" xlink:href="#aJ"/><use transform="matrix(0.05,0,0,0.05,35.95,0)" xlink:href="#aC"/><use transform="matrix(0.05,0,0,0.05,40.95,0)" xlink:href="#bv"/><use transform="matrix(0.05,0,0,0.05,49.95,0)" xlink:href="#aE"/><use transform="matrix(0.05,0,0,0.05,57.900000000000006,0)" xlink:href="#aQ"/></g><g id="ay"><use transform="matrix(0.05,0,0,0.05,0,0)" xlink:href="#aM"/><use transform="matrix(0.05,0,0,0.05,7,0)" xlink:href="#aG"/><use transform="matrix(0.05,0,0,0.05,12,0)" xlink:href="#aJ"/><use transform="matrix(0.05,0,0,0.05,21,0)" xlink:href="#aQ"/><use transform="matrix(0.05,0,0,0.05,26.950000000000003,0)" xlink:href="#aE"/><use transform="matrix(0.05,0,0,0.05,34.9,0)" xlink:href="#aL"/></g><g id="az"><use transform="matrix(0.05,0,0,0.05,0,0)" xlink:href="#aE"/><use transform="matrix(0.05,0,0,0.05,7.95,0)" xlink:href="#br"/><use transform="matrix(0.05,0,0,0.05,16.95,0)" xlink:href="#aI"/><use transform="matrix(0.05,0,0,0.05,25.950000000000003,0)" xlink:href="#aE"/><use transform="matrix(0.05,0,0,0.05,33.9,0)" xlink:href="#aF"/><use transform="matrix(0.05,0,0,0.05,42.9,0)" xlink:href="#aM"/><use transform="matrix(0.05,0,0,0.05,49.9,0)" xlink:href="#aE"/></g><g id="aA"><use transform="matrix(0.05,0,0,0.05,0,0)" xlink:href="#aY"/><use transform="matrix(0.05,0,0,0.05,14,0)" xlink:href="#aK"/><use transform="matrix(0.05,0,0,0.05,21.95,0)" xlink:href="#aF"/><use transform="matrix(0.05,0,0,0.05,30.950000000000003,0)" xlink:href="#aK"/><use transform="matrix(0.05,0,0,0.05,38.9,0)" xlink:href="#ba"/><use transform="matrix(0.05,0,0,0.05,47.9,0)" xlink:href="#aE"/><use transform="matrix(0.05,0,0,0.05,55.85,0)" xlink:href="#aQ"/></g></defs></g></svg>